<?xml version="1.0" standalone="no"?>
<!DOCTYPE svg PUBLIC "-//W3C//DTD SVG 1.1//EN" "http://www.w3.org/Graphics/SVG/1.1/DTD/svg11.dtd" >
<svg xmlns="http://www.w3.org/2000/svg">
<defs>
<font id="Big Bottom Cartoon" horiz-adv-x="250" >
<font-face units-per-em="100" ascent="80" descent="-20" />
<glyph unicode=" " horiz-adv-x="56" d="" />
<glyph unicode="!" horiz-adv-x="35.73729863692688" d="M3.118923172242809 116.268494511819600 C6.853923172242808 118.461494511819610 27.908923172242808 118.461494511819610 32.322923172242810 116.999494511819610 C36.737923172242809 115.537494511819600 32.662923172242813 41.341494511819604 30.624923172242809 39.513494511819601 C28.587923172242810 37.686494511819603 9.407923172242809 36.765494511819597 7.193923172242808 39.147494511819602 C5.155923172242812 41.341494511819604 -0.617076827757188 114.075494511819600 3.118923172242809 116.268494511819600 zM32.817923172242814 17.832102650263678 C30.669923172242815 24.687102650263682 22.580923172242816 28.988102650263684 14.771923172242818 27.714102650263683 C7.224923172242818 26.482102650263684 3.966923172242828 17.293102650263315 5.447923172242820 11.162102650263314 C7.134923172242822 4.179102650263310 15.303923172242822 -1.431897349737284 22.601923172242824 0.854102650262725 C29.899923172242826 3.140102650262726 34.965923172242810 10.977102650263674 32.817923172242814 17.832102650263678 z" />
<glyph unicode="&#x22;" horiz-adv-x="58.456009913258981" d="M45.495390334572484 117.924915825326410 C52.033390334572488 117.853915825326420 58.148390334572483 111.021915825326400 57.221390334572490 103.142915825326410 C56.368390334572496 95.893915825326403 51.109390334572495 77.558915825326210 45.921390334572493 62.207915825326211 C40.946390334572484 77.558915825326210 34.906390334572478 95.040915825326408 34.195390334572487 102.715915825326420 C33.484390334572488 110.390915825326420 38.957390334572487 117.995915825326390 45.495390334572484 117.924915825326410 zM1.196390334572484 102.716915825326410 C1.907390334572479 95.041915825326413 7.947390334572488 77.558915825326224 12.922390334572484 62.208915825326216 C18.110390334572500 77.559915825326229 23.369390334572486 95.894915825326407 24.222390334572481 103.143915825326420 C25.149390334572523 111.022915825326410 19.034390334572478 117.854915825326430 12.496390334572482 117.925915825326400 C5.957390334572484 117.995915825326380 0.485390334572486 110.391915825326410 1.196390334572484 102.716915825326410 z" />
<glyph unicode="#" horiz-adv-x="95.469640644361846" d="M26.647456009913249 71.621915825326170 C16.954456009913251 71.838915825326183 10.029456009913250 72.127915825326184 9.643456009913248 72.417915825326176 C8.310456009913249 73.417915825326176 9.976456009913246 79.750915825326175 11.310456009913249 81.084915825326178 C11.699456009913249 81.473915825326173 18.930456009913250 81.663915825326228 28.976456009913250 81.738915825326188 C28.976456009913250 81.738915825326188 37.568456009913248 117.046915825326410 38.310456009913253 117.417915825326420 C40.310456009913253 118.417915825326420 45.977456009913254 118.084915825326420 47.643456009913251 117.084915825326420 C48.249456009913246 116.721915825326420 45.508456009913253 101.427915825326210 41.692456009913251 82.041915825326200 L63.981456009913245 81.749915825326184 C68.634456009913251 101.430915825326200 72.573456009913244 117.049915825326410 73.309456009913248 117.417915825326420 C75.309456009913248 118.417915825326420 80.976456009913250 118.084915825326420 82.642456009913246 117.084915825326420 C83.254456009913241 116.717915825326400 76.309456009913248 81.600915825326183 76.309456009913248 81.600915825326183 C76.309456009913248 81.600915825326183 94.308456009913243 81.417915825326190 94.308456009913243 81.417915825326190 C94.308456009913243 81.417915825326190 94.308456009913243 74.417915825326190 92.308456009913243 72.417915825326190 C91.714456009913249 71.823915825326182 74.500456009913250 71.045915825326190 74.500456009913250 71.045915825326190 C74.500456009913250 71.045915825326190 71.153456009913256 54.603915825326403 69.465456009913254 46.551915825326411 L86.308456009913257 46.418915825326415 C87.975456009913259 44.085915825326417 86.057456009913253 38.413915825326420 84.057456009913253 36.413915825326420 C83.483456009913255 35.839915825326422 67.064456009913258 35.376915825326414 67.064456009913258 35.376915825326414 C67.064456009913258 35.376915825326414 59.586456009913249 1.238915825325414 58.976456009913250 0.750915825325414 C57.309456009913248 -0.582084174674577 46.976456009913250 -0.582084174674577 46.309456009913248 1.083915825325427 C46.068456009913248 1.686915825325436 49.566456009913253 15.704915825326403 53.847456009913245 34.971915825326413 C53.847456009913245 34.971915825326413 38.969456009913245 35.298915825326418 32.059456009913248 35.383915825326419 C32.059456009913248 35.383915825326419 24.586456009913249 1.237915825325437 23.976456009913250 0.750915825325414 C22.309456009913248 -0.582084174674577 11.976456009913250 -0.582084174674577 11.309456009913248 1.083915825325427 C11.066456009913249 1.691915825325431 18.922456009913247 35.725915825326403 18.922456009913247 35.725915825326403 C18.922456009913247 35.725915825326403 1.773456009913247 36.126915825326400 1.391456009913249 36.412915825326401 C0.058456009913250 37.412915825326401 1.976456009913250 44.750915825326395 3.309456009913248 46.084915825326398 C3.696456009913248 46.471915825326398 10.849456009913247 46.661915825326531 20.809456009913248 46.737915825326404 L26.647456009913249 71.621915825326170 zM34.476456009913250 46.776915825326405 C41.346456009913247 46.772915825326081 55.900456009913256 46.692915825326402 55.900456009913256 46.692915825326402 C55.900456009913256 46.692915825326402 59.609456009913259 63.025915825326173 61.473456009913264 71.045915825326176 C61.473456009913264 71.045915825326176 46.571456009913263 71.307915825326205 39.474456009913268 71.399915825326161 L34.476456009913250 46.776915825326405 z" />
<glyph unicode="$" horiz-adv-x="81.464513573149475" d="M34.071390334572484 0.642734765547345 C36.402390334572488 0.543734765547356 38.649390334572487 0.604734765547335 40.684390334572484 0.851734765547349 C69.174390334572479 4.307734765547238 79.623390334572463 14.065734765547347 80.521390334572487 31.411734765547351 C81.316390334572489 46.783734765547351 74.791390334572483 60.062734765547184 61.943390334572484 66.946734765547191 C56.581390334572490 69.819734765547196 45.232390334572486 71.929734765547195 45.232390334572486 71.929734765547195 C45.232390334572486 71.929734765547195 48.955390334572485 89.587734765547268 48.955390334572485 89.587734765547268 C48.955390334572485 89.587734765547268 59.521390334572487 82.305734765547200 63.772390334572492 76.011734765547203 C66.323390334572494 72.233734765547197 72.776390334572497 96.735734765547363 70.221390334572490 103.325734765547370 C68.726390334572486 107.181734765547360 62.075390334572489 111.647734765547370 53.922390334572498 114.673734765547350 C53.922390334572498 114.673734765547350 57.224390334572504 127.298734765547350 57.000390334572501 127.940734765547360 C55.794390334572498 131.397734765547340 49.174390334572507 134.893734765547350 45.886390334572496 133.396734765547360 C45.234390334572495 133.099734765547340 42.607390334572500 117.655734765547350 42.607390334572500 117.655734765547350 C42.607390334572500 117.655734765547350 34.699390334572499 118.409734765547360 31.114390334572498 117.878734765547360 C16.116390334572500 115.657734765547330 -0.440609665427491 105.182734765547200 1.340390334572497 79.293734765547200 C2.283390334572497 65.589734765547192 9.889390334572497 54.200734765547317 19.187390334572498 52.514734765547324 C23.024390334572502 51.818734765547326 26.117390334572498 51.106734765547337 29.533390334572502 50.476734765547342 C29.533390334572502 50.476734765547342 25.984390334572502 33.037734765547356 25.629390334572506 31.970734765547363 C18.175390334572505 33.394734765547369 9.756390334572506 45.662734765547356 8.256390334572505 46.853734765547358 C6.588390334572505 48.178734765547361 -0.705609665427495 18.832734765547357 1.291390334572505 13.044734765547361 C2.161390334572506 10.522734765547355 13.809390334572505 4.281734765547355 18.769390334572506 3.347734765547358 L18.935390334572503 3.310734765547352 C16.847390334572502 -5.402265234452642 15.582390334572501 -11.080265234452639 15.833390334572506 -11.887265234452656 C17.129390334572502 -16.055265234452662 29.006390334572508 -15.278265234452647 31.534390334572507 -13.876265234452660 C32.026390334572483 -13.603265234452635 34.071390334572484 0.642734765547345 34.071390334572484 0.642734765547345 zM41.572390334572482 47.350734765547358 C46.272390334572478 45.120734765547354 49.048390334572488 41.619734765547364 47.833390334572485 35.235734765547363 C46.837390334572490 29.999734765547359 43.234390334572481 28.992734765547368 38.782390334572483 30.046734765547370 L41.572390334572482 47.350734765547358 zM34.817390334572487 75.324734765547205 C30.201390334572487 77.724734765547197 27.928390334572484 80.865734765547245 29.779390334572483 87.093734765547239 C30.979390334572486 91.127734765547245 34.394390334572485 93.571734765547291 38.231390334572481 92.514734765547288 L34.817390334572487 75.324734765547205 z" />
<glyph unicode="%" horiz-adv-x="110.64961328155596" d="M23.428313889157572 117.627162293267250 C36.256313889157568 118.380162293267290 47.321313889157580 108.258162293267200 48.141313889157573 95.017162293267205 C48.961313889157573 81.776162293267205 39.228313889157569 70.432162293266998 26.400313889157566 69.679162293267012 C13.572313889157563 68.926162293267026 2.507313889157564 79.048162293267154 1.687313889157565 92.289162293267168 C0.866313889157574 105.530162293267170 10.600313889157569 116.874162293267260 23.428313889157572 117.627162293267250 zM34.102313889157571 97.398162293267220 C32.009313889157568 104.054162293267210 25.777313889157568 108.098162293267240 20.183313889157574 106.431162293267250 C14.589313889157580 104.764162293267250 11.750313889157576 98.018162293267153 13.843313889157574 91.362162293267147 C15.936313889157571 84.706162293267141 22.168313889157574 80.662162293267045 27.762313889157575 82.329162293267032 C33.357313889157567 83.995162293267043 36.195313889157568 90.742162293267228 34.102313889157571 97.398162293267220 zM83.965313889157571 48.674162293267244 C96.793313889157574 49.427162293267230 107.858313889157570 39.305162293267244 108.678313889157580 26.064162293267245 C109.498313889157590 12.823162293267245 99.765313889157582 1.479162293266214 86.937313889157579 0.725162293266202 C74.109313889157576 -0.028837706733810 63.044313889157579 10.094162293267232 62.224313889157571 23.335162293267231 C61.404313889157564 36.576162293267231 71.137313889157568 47.921162293267258 83.965313889157571 48.674162293267244 zM94.640313889157568 28.444162293267240 C92.547313889157564 35.100162293267246 86.315313889157565 39.144162293267257 80.721313889157571 37.477162293267256 C75.127313889157577 35.810162293267254 72.288313889157564 29.064162293267245 74.381313889157568 22.408162293267239 C76.474313889157571 15.752162293267233 82.706313889157570 11.708162293266930 88.300313889157565 13.375162293266932 C93.894313889157559 15.042162293266934 96.733313889157571 21.789162293267239 94.640313889157568 28.444162293267240 zM9.837313889157571 5.289162293266486 C9.184313889157568 0.653162293266490 21.648313889157567 -0.292837706733678 25.407313889157571 2.363162293266328 C29.166313889157571 5.019162293266334 99.242313889157572 107.764162293267260 99.912313889157559 112.881162293267270 C100.582313889157550 117.998162293267270 90.714313889157552 118.977162293267270 85.380313889157563 115.612162293267260 C80.177313889157574 112.330162293267250 10.651313889157590 11.064162293266477 9.837313889157571 5.289162293266486 z" />
<glyph unicode="&#x26;" horiz-adv-x="88.371984448344506" d="M57.661923172242808 12.525915825326095 C47.220923172242806 2.020915825326100 27.830923172242798 -6.554084174674188 10.570923172242807 8.023915825325837 C-5.480076827757188 21.580915825325846 -2.214076827757193 51.543915825326195 25.699923172242805 69.123915825326208 C13.127923172242813 92.277915825326204 21.047923172242804 119.964915825326430 34.861923172242804 117.788915825326430 C59.365923172242816 113.929915825326420 60.857923172242806 76.626915825326179 46.154923172242810 65.263915825326194 C47.811923172242814 61.825915825326184 55.805923172242814 49.511915825326419 58.103923172242816 48.024915825326410 C61.103923172242816 52.300915825326406 62.111923172242811 56.724915825326278 63.603923172242816 57.581915825326277 C65.095923172242820 58.439915825326281 80.673923172242809 51.970915825326387 81.525923172242813 49.827915825326386 C82.377923172242816 47.684915825326385 76.625923172242807 36.750915825326409 74.281923172242813 30.962915825326412 C79.182923172242809 25.388915825326414 87.279923172242817 22.172915825326406 87.492923172242811 19.600915825326418 C87.687923172242805 17.240915825326418 68.954923172242815 2.020915825325517 66.397923172242812 2.449915825325519 C63.840923172242810 2.877915825325516 60.644923172242812 8.237915825326084 57.661923172242808 12.525915825326095 zM25.103923172242808 29.161915825326410 C29.446923172242805 24.783915825326410 40.091923172242808 28.366915825326409 44.353923172242808 33.940915825326407 C42.222923172242808 36.084915825326412 34.860923172242806 52.186915825326288 32.730923172242811 56.259915825326296 C22.076923172242807 49.399915825326303 17.432923172242809 36.894915825326414 25.103923172242808 29.161915825326410 zM38.270923172242810 106.639915825326400 C27.667923172242809 110.301915825326400 32.730923172242811 84.986915825326179 38.270923172242810 77.697915825326191 C45.728923172242808 80.699915825326173 52.547923172242804 101.709915825326410 38.270923172242810 106.639915825326400 z" />
<glyph unicode="'" horiz-adv-x="25.967162329615803" d="M1.547000000000038 102.695092985756560 C2.258000000000036 95.020092985756605 8.298000000000016 77.537092985756374 13.273000000000023 62.187092985756401 C18.461000000000013 77.538092985756407 23.720000000000020 95.873092985756557 24.573000000000093 103.122092985756580 C25.500000000000000 111.001092985756600 19.384999999999991 117.833092985756560 12.846999999999978 117.904092985756560 C6.307999999999992 117.974092985756530 0.836000000000020 110.370092985756570 1.547000000000024 102.695092985756560 L1.547000000000038 102.695092985756560 z" />
<glyph unicode="(" horiz-adv-x="38.701902037469608" d="M23.579333899096923 0.030705266714619 C26.579333899096923 -0.636294733285382 35.687237077654743 8.804608445272493 35.353237077654740 11.804608445272493 C35.162237077654737 13.524608445272492 9.610296229621490 35.551972483380553 11.605873039546623 77.259527810814291 C15.597026659396718 110.984775898547720 35.019237077654736 126.745409506880720 35.353237077654740 128.745409506880720 C35.781237077654737 131.313409506880700 31.431050588945354 136.017092985756560 28.780050588945358 135.575092985756560 C26.780050588945358 135.242092985756560 3.823123480838973 106.993622278697610 2.444838993907865 67.643419942779019 C-0.168030139011236 27.769222924672867 21.583757089171897 0.030705266714619 23.579333899096923 0.030705266714619 z" />
<glyph unicode=")" horiz-adv-x="39.311028500619557" d="M36.441542460947034 67.923967667171226 C35.063257974015983 107.274170003089810 12.106330865910259 135.522640710148860 10.106330865910259 135.855640710148860 C7.455330865910263 136.297640710148870 3.105144377200956 131.593957231273120 3.533144377200953 129.025957231273140 C3.867144377200956 127.025957231273130 23.289354795458419 111.265323622939960 27.280508415308489 77.540075535206512 C29.276085225233608 35.832520207772760 3.724144377200956 13.805156169664755 3.533144377200953 12.085156169664756 C3.199144377200948 9.085156169664757 12.307047555758473 -0.355747008893132 15.307047555758473 0.311252991106883 C17.302624365683503 0.311252991106883 39.054411593866121 28.049770649065067 36.441542460947034 67.923967667171226 z" />
<glyph unicode="*" horiz-adv-x="57.690210656753436" d="M56.405390334572488 87.808959156760309 C56.155390334572488 85.808959156760309 40.508390334572489 83.291959156760214 37.956390334572490 80.925959156760229 C35.404390334572490 78.559959156760215 34.430390334572493 62.092959156760273 33.168390334572493 61.825959156760277 C31.906390334572492 61.558959156760281 24.186390334572494 75.929959156760233 20.921390334572493 77.244959156760231 C17.656390334572492 78.559959156760229 1.897390334572492 74.733959156760221 1.276390334572493 75.896959156760232 C0.655390334572495 77.059959156760229 12.155390334572495 88.809959156760371 12.155390334572495 92.309959156760371 C12.155390334572495 95.809959156760371 3.700390334572496 109.092959156760460 4.802390334572493 110.576959156760450 C5.905390334572495 112.059959156760440 23.773390334572497 105.301959156760460 26.905390334572495 106.309959156760460 C30.036390334572495 107.317959156760450 37.093390334572497 118.817959156760450 38.874390334572496 117.938959156760460 C40.655390334572495 117.059959156760460 39.720390334572492 98.265959156760459 39.720390334572492 98.265959156760459 C39.720390334572492 98.265959156760459 56.655390334572488 89.808959156760309 56.405390334572488 87.808959156760309 z" />
<glyph unicode="+" horiz-adv-x="57.690210656753379" d="M35.122057001239114 7.955390334572485 C33.614057001239111 7.587390334572490 24.578800495662932 7.465390334572490 23.322800495662932 7.955390334572485 C21.270755885997531 9.836431226765775 23.322800495663000 13.940520446096642 25.203841387856301 31.724907063197008 C23.322800495662953 33.605947955390334 2.109000000000009 30.637011436302998 1.933000000000011 31.356011436302992 C1.565000000000012 32.864011436302988 1.434324659231683 39.591078066914520 3.486369268897079 39.591078066914520 C5.367410161090442 39.591078066914520 17.964684014869892 39.591078066914520 25.203841387856301 39.591078066914520 C27.255885997521673 41.643122676579907 25.203841387856208 61.479553903345710 25.203841387856301 63.360594795539043 C25.203841387856276 65.412639405204459 33.241016109045894 65.412639405204430 33.241016109045859 63.360594795539043 C33.241016109045866 61.479553903345710 31.188971499380465 41.643122676579928 33.754027261462170 39.420074349442416 C40.138166047087950 39.477075588599817 51.025402726146183 39.591078066914520 52.906443618339495 39.591078066914520 C54.958488228004938 39.591078066914520 55.692488228004962 33.232907063197004 54.958488228004967 31.724907063197008 C54.629488228004973 31.049907063197011 35.122057001239114 33.605947955390334 33.583023543990066 31.895910780669112 C35.122057001239199 13.940520446096663 37.174101610904614 9.836431226765804 35.122057001239114 7.955390334572485 z" />
<glyph unicode="," horiz-adv-x="31.397769516728658" d="M29.116390334572493 18.154864229935406 C27.377390334572496 25.215864229935399 18.753390334572494 29.446864229935422 10.849390334572494 28.157864229935406 C3.209390334572493 26.910864229935413 -0.087609665427507 17.609864229935411 1.411390334572495 11.402864229935417 C2.807390334572497 5.625864229935431 8.545390334572495 -0.018135770064575 14.684390334572498 0.460864229935410 C19.331390334572497 0.823864229935410 18.185390334572496 -4.470135770064601 14.703390334572497 -9.362135770064597 C11.022390334572496 -14.533135770064590 4.871390334572496 -19.324135770064586 5.572390334572496 -19.131135770064603 C26.384390334572487 -13.398135770064570 32.755390334572482 3.378864229935410 29.116390334572493 18.154864229935406 z" />
<glyph unicode="-" horiz-adv-x="43.14002478314751" d="M2.324039653035925 53.100371747211909 C2.153035935563834 53.442379182156152 11.849467162329677 51.349338289962830 21.989467162329674 51.561338289962805 C31.676467162329672 51.763338289962860 41.654894671623339 53.442379182156117 41.654894671623310 53.442379182156117 C43.706939281288804 51.561338289962826 43.706939281288747 47.457249070631946 43.706939281288783 45.576208178438662 C43.706939281288768 45.576208178438662 31.726459727385347 45.967998524191046 22.030459727385349 45.828998524191078 C11.896459727385349 45.683998524191132 0.100991325898549 45.234200743494405 0.100991325898462 45.234200743494398 C0.100991325898427 47.457249070631967 0.271995043370541 51.219330855018626 2.324039653035925 53.100371747211909 z" />
<glyph unicode="." horiz-adv-x="30.767955113942662" d="M29.313151835933745 18.522014269320906 C27.093151835933746 25.607014269320899 18.732151835933742 30.052014269320942 10.661151835933744 28.735014269320935 C2.860151835933742 27.462014269320953 -0.506848164066254 17.964014269320444 1.024151835933743 11.627014269320441 C2.768151835933743 4.410014269320442 11.211151835933741 -1.389985730680280 18.753151835933743 0.973014269319727 C26.295151835933744 3.336014269319726 31.533151835933744 11.437014269320912 29.313151835933745 18.522014269320906 z" />
<glyph unicode="/" horiz-adv-x="89.853779429987583" d="M83.591697645601016 116.884758364312290 C85.340697645601011 117.560758364312290 87.439783147459735 117.255713754646820 87.524783147459743 114.832713754646820 C87.565783147459740 113.647713754646820 85.627555583985540 110.841487546341800 79.708269713132609 100.912362859749630 C59.871838486366777 71.157716019600969 14.335192069392850 1.970260223048342 10.402106567534020 1.286245353159870 C6.469021065675282 1.286245353159870 0.483890954151125 5.903345724907048 0.483890954151207 9.836431226765797 L83.591697645601016 116.884758364312290 z" />
<glyph unicode="0" horiz-adv-x="94.448574969021081" d="M92.213722428748412 58.160733581164820 C94.564722428748397 26.389733581164819 86.231722428748412 -0.113266418835181 45.443722428748409 1.251733581164814 C18.243722428748413 2.161733581164810 1.172722428748399 28.570733581164824 1.915722428748410 60.708733581164807 C2.564722428748512 88.789733581164839 21.897722428748409 118.647733581164600 44.564722428748411 118.311733581164820 C69.506722428748418 117.941733581164260 89.841722428748412 90.217733581164822 92.213722428748412 58.160733581164820 zM66.422722428748415 63.112733581164818 C64.534722428748410 79.068733581164821 57.025722428748409 90.763733581164828 45.781722428748417 91.251733581164814 C35.032722428748414 91.718733581164827 27.995722428748500 77.336733581164779 27.884722428748418 61.268733581164810 C27.778722428748406 45.811733581164816 35.554722428748420 33.281733581164957 48.525722428748423 33.129733581164814 C61.480722428748408 32.978733581164860 68.306722428748401 47.188733581164811 66.422722428748415 63.112733581164818 z" />
<glyph unicode="1" horiz-adv-x="54.583995522449982" d="M21.988189591078083 118.148092985756510 C18.988189591078083 116.831092985756510 1.321189591078081 89.842092985756508 1.655189591078084 86.221092985756513 C1.988189591078083 82.600092985756504 10.655189591078084 77.334092985756513 16.988189591078083 74.043092985756516 C17.988189591078079 63.840092985756513 13.321189591078081 5.252092985756526 14.988189591078083 3.278092985756537 C16.655189591078084 1.303092985756543 49.655189591078084 0.974092985756535 51.988189591078083 2.949092985756529 C54.321189591078081 4.924092985756523 49.988189591078083 116.174092985756520 48.321189591078081 118.148092985756510 C46.655189591078084 120.123092985756510 24.988189591078083 119.464092985756510 21.988189591078083 118.148092985756510 z" />
<glyph unicode="2" horiz-adv-x="72.142712695144269" d="M23.331722428748407 76.581092985756555 C23.654722428748407 73.981092985756561 4.843722428748407 79.397092985756572 3.664722428748405 82.955092985756579 C1.331722428748407 90.000092985756567 6.664722428748405 117.510092985756730 36.664722428748405 117.846092985756570 C63.996722428748399 118.152092985756340 78.331722428748407 86.310092985756569 63.664722428748405 64.839092985756565 C51.516722428748409 47.055092985756573 42.664722428748412 44.710092985756553 40.331722428748407 32.968092985756563 C47.331722428748407 33.639092985756548 67.998722428748408 33.303092985756557 69.998722428748408 31.291092985756556 C71.998722428748408 29.279092985756556 69.331722428748407 3.781092985756544 67.665722428748410 2.439092985756531 C65.998722428748408 1.097092985756518 2.350722428748412 -0.225907014243461 2.332722428748411 2.774092985756532 C1.998722428748689 58.465092985756534 53.728722428748405 66.740092985756576 41.665722428748410 87.988092985756566 C34.998722428748408 99.730092985756571 21.998722428748412 87.317092985756574 23.331722428748407 76.581092985756555 z" />
<glyph unicode="3" horiz-adv-x="89.9243353924536" d="M25.688988847583587 40.107092985756537 C28.958988847583591 36.541092985756535 35.639988847583588 30.874092985756526 42.638988847583590 30.208092985756537 C51.914988847583587 29.324092985756522 58.863988847583585 37.208092985756537 59.153988847583591 42.458092985756537 C59.556988847583597 49.764092985756534 56.000988847583585 58.208092985756522 42.741988847583592 58.708092985756537 C39.879988847583590 58.816092985756534 36.912988847583591 58.208092985756537 35.322988847583595 59.208092985756537 C33.732988847583599 60.208092985756537 30.232988847583599 71.541092985756535 32.141988847583598 75.875092985756538 C32.895988847583595 77.587092985756541 39.792988847583601 77.010092985756529 41.367988847583597 77.208092985756537 C49.320988847583592 78.208092985756522 52.236988847583604 83.388092985756543 51.272988847583591 88.708092985756537 C50.275988847583591 94.208092985756537 45.821988847583590 98.208092985756537 41.049988847583592 98.541092985756535 C35.931988847583590 98.899092985756539 29.278988847583591 93.541092985756535 27.688988847583587 88.874092985756533 C27.056988847583590 87.019092985756544 8.282988847583590 99.541092985756535 11.175988847583586 103.853092985756530 C16.152988847583586 111.270092985756530 28.121988847583587 118.874092985756530 41.006988847583585 118.874092985756530 C59.735988847583585 118.874092985756530 74.452988847583583 106.373092985756530 74.452988847583583 90.541092985756535 C74.452988847583583 81.701092985756532 69.044988847583582 76.541092985756535 63.317988847583578 72.874092985756533 C79.245988847583575 66.734092985756533 87.986988847583575 50.989092985756528 87.813988847583573 37.207092985756532 C87.495988847583561 11.874092985756533 66.258988847583566 0.874092985756533 41.555988847583571 0.874092985756533 C23.885988847583569 0.874092985756533 8.126988847583567 7.855092985756528 1.481988847583573 19.004092985756529 C-0.627011152416410 22.541092985756535 22.598988847583591 43.476092985756537 25.688988847583587 40.107092985756537 z" />
<glyph unicode="4" horiz-adv-x="88.09657596403224" d="M16.682189591078085 117.304092985756540 C15.156189591078082 117.304092985756540 -0.578810408921914 50.110092985756530 1.710189591078084 47.071092985756529 C3.999189591078084 44.032092985756528 30.682189591078085 45.720092985756551 39.682189591078085 46.058092985756538 C39.015189591078084 35.928092985756543 36.715189591078087 5.328092985756548 38.682189591078085 2.838092985756539 C40.015189591078084 1.150092985756551 70.015189591078084 0.474092985756528 73.015189591078084 3.176092985756533 C75.768189591078084 5.655092985756546 70.682189591078071 27.825092985756534 70.015189591078084 47.409092985756537 C78.015189591078084 48.084092985756541 84.537189591078089 46.396092985756532 85.682189591078085 48.422092985756542 C86.827189591078081 50.448092985756553 82.923189591078085 67.669092985756549 81.015189591078084 69.019092985756558 C79.107189591078082 70.370092985756557 71.348189591078082 68.006092985756553 69.348189591078082 69.694092985756555 C67.682189591078085 85.227092985756542 71.682189591078085 114.941092985756540 68.349189591078087 117.642092985756530 C66.531189591078089 119.115092985756530 48.924189591078090 118.317092985756530 47.016189591078088 116.967092985756540 C45.108189591078087 115.616092985756540 43.683189591078090 83.539092985756540 41.016189591078088 70.032092985756535 C37.016189591078088 69.019092985756529 30.607189591078090 69.019092985756529 27.645189591078086 70.032092985756535 C27.016189591078088 75.772092985756544 39.398189591078086 114.941092985756530 39.016189591078088 116.967092985756540 C38.634189591078083 118.993092985756550 18.208189591078089 117.304092985756540 16.682189591078085 117.304092985756540 z" />
<glyph unicode="5" horiz-adv-x="82.012409999861802" d="M68.178420120414742 117.155092985756540 C65.511420120414741 118.497092985756540 18.845420120414740 119.168092985756530 17.178420120414739 117.155092985756540 C15.511420120414737 115.142092985756530 4.511420120414742 58.111092985756535 6.511420120414741 56.098092985756544 C8.511420120414742 54.085092985756553 52.844420120414739 68.175092985756550 52.511420120414741 43.350092985756540 C52.362420120414740 32.280092985756532 28.511420120414741 25.905092985756532 13.178420120414739 44.021092985756546 C10.575420120414739 47.096092985756549 0.153420120414740 31.719092985756554 1.511420120414737 27.918092985756537 C15.178420120414723 -10.325907014243469 79.511420120414726 -8.983907014243457 80.178420120414742 39.660092985756542 C80.757420120414736 81.927092985756559 52.178420120414742 81.595092985756551 34.511420120414741 80.253092985756552 C35.178420120414742 84.614092985756542 36.178420120414742 89.311092985756545 37.511420120414741 93.337092985756556 C40.178420120414742 94.343092985756556 65.178420120414742 88.976092985756566 67.511420120414741 90.653092985756558 C69.845420120414744 92.330092985756551 70.845420120414744 115.813092985756540 68.178420120414742 117.155092985756540 z" />
<glyph unicode="6" horiz-adv-x="85.787889885435447" d="M66.075255266418736 97.472000000000008 C54.742255266418738 92.198000000000008 43.075255266418736 80.662000000000006 39.075255266418736 71.104000000000013 C56.075255266418736 79.013999999999996 83.408255266418735 71.497000000000014 83.408255266418735 40.451000000000022 C83.409255266418739 15.073000000000008 65.742255266418738 0.569999999999958 42.742255266418738 0.900000000000006 C19.352255266418737 1.235000000000134 3.075255266418735 15.073000000000008 2.075255266418736 41.441000000000003 C0.287255266418738 88.597000000000008 51.075255266418736 118.238000000000000 54.075255266418736 118.567000000000010 C57.075255266418736 118.896000000000000 70.910255266418744 99.722000000000008 66.075255266418736 97.472000000000008 zM31.075255266418736 42.100000000000009 C30.131255266418734 34.399000000000015 37.075255266418736 27.598000000000013 47.408255266418735 30.234000000000009 C55.214255266418732 32.226000000000013 59.001255266418738 42.377000000000010 54.741255266418733 48.362000000000009 C48.409255266418739 57.261000000000010 32.409255266418739 52.977000000000004 31.075255266418736 42.100000000000009 z" />
<glyph unicode="7" horiz-adv-x="85.378288488734711" d="M2.739938281671051 114.668092985756530 C-0.594061718328952 112.374092985756530 7.072938281671052 86.807092985756540 9.405938281671048 84.840092985756542 C11.738938281671047 82.873092985756543 34.405938281671048 89.757092985756501 49.072938281671050 88.773092985756549 C45.739938281671051 56.979092985756537 18.405938281671048 3.879092985756543 20.405938281671048 0.929092985756554 C22.405938281671048 -2.020907014243434 55.405938281671048 -1.037907014243459 57.738938281671047 0.929092985756554 C60.072938281671050 2.896092985756539 86.072938281671043 112.374092985756530 83.072938281671043 115.324092985756540 C80.072938281671043 118.274092985756540 6.072938281671050 116.962092985756540 2.739938281671051 114.668092985756530 z" />
<glyph unicode="8" horiz-adv-x="99.256044922909723" d="M71.530094479991476 72.900000000000006 C88.219094479991469 66.760000000000005 97.378094479991475 51.015000000000001 97.197094479991478 37.233000000000004 C96.863094479991474 11.900000000000006 74.611094479991479 0.900000000000006 48.728094479991469 0.900000000000006 C22.845094479991459 0.900000000000006 2.196094479991462 12.233000000000004 1.863094479991467 36.900000000000006 C1.683094479991469 50.197000000000003 14.005094479991467 65.150000000000006 25.683094479991468 71.045000000000016 C17.030094479991476 76.650000000000006 12.619094479991473 81.343000000000004 12.619094479991475 90.233000000000004 C12.619094479991553 106.065000000000000 28.528094479991474 118.900000000000010 48.152094479991476 118.900000000000010 C67.776094479991485 118.900000000000010 83.197094479991478 106.399000000000000 83.197094479991478 90.567000000000007 C83.197094479991478 81.725999999999999 77.530094479991476 76.567000000000007 71.530094479991476 72.900000000000006 zM67.167094479991476 42.483000000000004 C67.167094479991476 49.801000000000002 59.730094479991479 58.733000000000004 49.970094479991474 58.733000000000004 C40.210094479991469 58.733000000000004 31.826094479991475 49.801000000000002 31.826094479991475 42.483000000000004 C31.826094479991475 35.165000000000006 39.737094479991477 29.233000000000004 49.496094479991484 29.233000000000004 C59.255094479991499 29.233000000000004 67.167094479991476 35.166000000000011 67.167094479991476 42.483000000000004 zM58.908094479991476 88.733000000000004 C58.908094479991476 93.427000000000007 54.190094479991473 98.566000000000003 48.197094479991478 98.566000000000003 C42.204094479991483 98.566000000000003 37.204094479991475 93.426999999999992 37.204094479991475 88.733000000000004 C37.204094479991475 84.039000000000016 41.870094479991479 80.233000000000004 47.863094479991474 80.233000000000004 C53.857094479991474 80.233000000000004 58.908094479991476 84.039000000000016 58.908094479991476 88.733000000000004 z" />
<glyph unicode="9" horiz-adv-x="85.503701349253447" d="M16.016778656089940 2.126000000000005 C25.683778656089942 11.361000000000004 46.349778656089931 30.162000000000006 50.016778656089940 47.643000000000001 C30.683778656089935 36.759000000000015 1.637778656089937 46.918999999999997 1.637778656089942 77.986000000000004 C1.637778656089955 103.383000000000010 19.304778656089944 117.895999999999890 42.304778656089944 117.566000000000000 C65.694778656089937 117.230999999999880 81.332778656089943 103.352000000000000 82.971778656089953 76.997000000000000 C85.349778656089924 38.737000000000002 65.349778656089939 14.989000000000004 54.682778656089937 1.466000000000008 C52.825778656089938 -0.888999999999982 13.011778656089938 -0.745000000000005 16.016778656089940 2.126000000000005 zM51.970778656089934 81.284000000000006 C52.914778656089936 88.991000000000014 45.970778656089934 95.796999999999997 35.637778656089935 93.158000000000015 C27.830778656089933 91.165000000000006 24.044778656089932 81.006000000000000 28.304778656089937 75.017000000000010 C34.636778656089938 66.112000000000009 50.636778656089945 70.399000000000001 51.970778656089934 81.284000000000006 z" />
<glyph unicode=":" horiz-adv-x="32.087957140817139" d="M19.582421668209850 36.537092985756530 C12.040421668209849 34.174092985756531 3.597421668209851 39.974092985756528 1.853421668209851 47.191092985756526 C0.322421668209854 53.528092985756530 3.689421668209848 63.026092985756527 11.490421668209850 64.299092985756516 C19.561421668209846 65.616092985756524 27.922421668209854 61.171092985756530 30.142421668209852 54.086092985756537 C32.361421668209857 47.000092985756524 27.124421668209852 38.900092985756523 19.582421668209850 36.537092985756530 zM30.161267736303557 18.506208966659244 C27.941267736303558 25.591208966659238 19.580267736303554 30.036208966659281 11.509267736303556 28.719208966659274 C3.708267736303554 27.446208966659292 0.341267736303559 17.948208966658783 1.872267736303556 11.611208966658779 C3.616267736303556 4.394208966658781 12.059267736303553 -1.405791033341941 19.601267736303555 0.957208966658065 C27.143267736303557 3.320208966658065 32.381267736303556 11.421208966659250 30.161267736303557 18.506208966659244 z" />
<glyph unicode=";" horiz-adv-x="31.60277405416366" d="M5.859360253912172 -19.252209817860575 C5.162360253912173 -19.444209817860582 11.285360253912170 -14.675209817860576 14.950360253912173 -9.527209817860580 C18.417360253912172 -4.657209817860576 19.557360253912172 0.612790182139427 14.931360253912175 0.251790182139416 C8.819360253912173 -0.225209817860588 3.107360253912175 5.393790182139412 1.717360253912176 11.144790182139417 C0.224360253912177 17.323790182139419 3.507360253912175 26.583790182139410 11.113360253912177 27.824790182139424 C18.982360253912177 29.108790182139423 27.567360253912177 24.895790182139422 29.298360253912179 17.866790182139425 C32.920360253912172 3.157790182139422 26.577360253912175 -13.544209817860576 5.859360253912172 -19.252209817860575 zM29.509360253912170 52.538790182138946 C27.345360253912169 59.446790182138948 19.193360253912168 63.780790182138986 11.324360253912172 62.496790182138987 C3.719360253912171 61.255790182138988 0.436360253912170 51.995790182139046 1.928360253912171 45.816790182139044 C3.628360253912170 38.779790182139038 11.860360253912170 33.125790182139326 19.214360253912176 35.429790182139328 C26.568360253912182 37.733790182139330 31.674360253912166 45.630790182138945 29.509360253912170 52.538790182138946 z" />
<glyph unicode="&#x3c;" horiz-adv-x="47.2667136533031" d="M39.931843033602945 1.968294927553814 C41.972737530916710 1.968294927553814 45.891254965759167 7.927706859709964 45.891254965759117 9.886965577131150 C45.891254965759174 11.846224294552378 43.931996248337910 11.846224294552357 12.221341606666556 31.724907063197008 C22.130551448063702 41.599038155912716 43.631029339008599 56.493464684014896 43.857029339008591 57.375464684014901 C43.857029339008584 57.375464684014851 43.771988446815335 59.622509293680324 41.975988446815336 59.427509293680316 C40.620988446815339 59.280509293680311 0.338489785716357 31.683718808441995 1.149594394770634 30.743432768018998 C10.216419152714865 21.805789441443459 37.972584316181837 1.968294927553814 39.931843033602945 1.968294927553814 z" />
<glyph unicode="=" horiz-adv-x="58.379053173210195" d="M2.168755729375334 35.651041306781281 C4.144958379974428 35.651041306781281 16.414154862425846 33.393947955390274 29.854154862425844 33.605947955390320 C42.693154862425843 33.807947955390482 53.651368370623089 35.651041306781345 55.675716200715783 35.657992565055793 C57.603773671821259 35.651041306781273 58.379591272808355 27.251625894582915 57.645591272808360 25.743625894582919 C57.286591272808366 25.006625894582925 42.774885480625926 25.882625894582766 29.923885480625927 25.743625894582919 C16.491885480625925 25.598625894583108 0.370256402078336 24.973625894582923 0.182256402078337 25.743625894582919 C-0.185743597921658 27.251625894582929 0.192553078776267 35.651041306781281 2.168755729375334 35.651041306781281 zM4.144958379974355 53.487537025008862 C6.121161030573497 53.487537025008862 16.708139992537326 52.087427986654923 30.148139992537324 52.299427986654969 C42.987139992537323 52.501427986655131 51.675165720024090 53.487537025008862 53.651368370623118 53.487537025008862 C55.627571021222117 53.487537025008862 56.361571021222247 47.040054559776664 55.627571021222252 45.532054559776668 C55.268571021222257 44.795054559776673 42.632139992537319 45.905427986654871 29.781139992537319 45.766427986655032 C16.349139992537317 45.621427986655220 2.790139992537320 44.493427986655036 2.602139992537321 45.263427986655032 C2.234139992537326 46.771427986655041 2.168755729375263 53.487537025008862 4.144958379974355 53.487537025008862 z" />
<glyph unicode="&#x3e;" horiz-adv-x="48.158538439214453" d="M46.551887616989397 30.534985974338412 C47.362992226043673 31.475272014761408 7.080493564944562 59.072062499999987 5.725493564944572 59.219062499999993 C3.929493564944580 59.414062500000000 3.844452672751332 57.167017890334520 3.844452672751318 57.167017890334570 C4.070452672751317 56.285017890334565 25.570930563696248 41.390591362232115 35.480140405093394 31.516460269516408 C3.769485763422036 11.637777500871749 1.810227046000755 11.637777500871756 1.810227046000811 9.678518783450528 C1.810227046000756 7.719260066029342 5.728744480843212 1.759848133873241 7.769638978156970 1.759848133873241 C9.728897695578077 1.759848133873241 37.485062859045165 21.597342647762872 46.551887616989397 30.534985974338412 z" />
<glyph unicode="?" horiz-adv-x="73.291782405807908" d="M14.034090891502267 77.624747299923456 C13.034090891502265 74.883747299923456 1.174090891502265 92.859747299923669 1.924090891502267 96.971747299923663 C7.277090891502271 126.318747299923670 64.879090891502273 122.880747299923680 69.674090891502260 99.438747299923676 C75.674090891502232 70.107747299923673 55.784090891502260 72.690747299923586 46.784090891502260 55.146747299923589 C43.604090891502260 48.948747299923582 46.434090891502258 40.190747299923679 45.674090891502260 39.496747299923676 C43.674090891502260 37.669747299923678 24.847090891502262 36.748747299923672 22.674090891502260 39.131747299923681 C21.935090891502263 39.941747299923684 18.314090891502261 46.142747299923585 19.424090891502260 54.756747299923589 C20.513090891502266 63.210747299923582 43.062090891502265 76.812747299923501 42.174090891502260 85.458747299923502 C40.174090891502267 104.920747299923510 21.219090891502269 97.320747299923454 14.034090891502267 77.624747299923456 zM49.878090891502268 18.481747299923690 C47.684090891502265 25.482747299923695 39.423090891502270 29.874747299923690 31.449090891502266 28.572747299923684 C23.741090891502267 27.314747299923688 20.414090891502269 17.930747299923304 21.927090891502267 11.668747299923304 C23.650090891502266 4.537747299923289 31.993090891502270 -1.193252700077309 39.445090891502268 1.141747299922699 C46.897090891502266 3.476747299922707 52.071090891502266 11.480747299923685 49.878090891502268 18.481747299923690 z" />
<glyph unicode="@" horiz-adv-x="80.264230732024089" d="M69.875127057392760 32.967343642754571 C71.374127057392755 47.774343642754573 58.703127057392763 62.945343642754288 41.743127057392755 63.358343642754335 C27.255127057392755 63.711343642754322 11.001127057392864 52.757343642754591 10.373127057392754 30.363343642754586 C9.695127057392748 6.187343642754598 38.210127057392754 -5.546656357245396 53.758127057392755 3.287343642754607 C56.065127057392758 4.598343642754614 66.655127057392761 2.529343642754611 63.652127057392761 0.107343642754614 C41.056127057392750 -18.116656357245375 1.988127057392752 -2.744656357245418 2.088127057392761 30.363343642754586 C2.168127057392761 56.644343642754592 21.291127057392757 71.786343642754588 41.254127057392758 71.645343642754369 C64.005127057392755 71.485343642753548 79.202127057392758 54.247343642754586 78.846127057392749 31.555343642754579 C78.677127057392752 20.763343642754577 72.135127057392751 10.651343642754590 61.967127057392744 10.279343642754583 C55.099127057392749 10.028343642754628 51.422127057392743 12.882343642754577 49.916127057392742 16.973343642754585 C43.137127057392739 3.956343642754575 13.384127057392742 7.922343642754555 18.118127057392741 33.440343642754556 C21.672127057392746 52.599343642754548 39.710127057392739 53.373343642754264 46.662127057392738 45.545343642754275 C46.816127057392734 47.221343642754277 47.010127057392737 49.293343642754280 47.279127057392742 49.506343642754274 C48.050127057392743 50.115343642754269 61.471127057392749 49.811343642754281 62.242127057392736 48.744343642754274 C62.580127057392730 48.277343642754275 59.201127057392739 41.679343642754581 59.614127057392736 32.700343642754582 C59.991127057392731 24.518343642754580 61.596127057392735 22.499343642754582 64.602127057392735 22.923343642754588 C67.239127057392750 23.298343642754588 69.499127057392755 29.248343642754577 69.875127057392760 32.967343642754571 zM38.878127057392753 35.294343642754498 C36.639127057392756 35.988343642754501 34.121127057392755 34.339343642754585 33.254127057392751 31.611343642754576 C32.387127057392746 28.883343642754568 33.499127057392748 26.109343642754581 35.738127057392752 25.415343642754578 C37.977127057392750 24.721343642754576 40.495127057392750 26.370343642754577 41.362127057392755 29.098343642754571 C42.229127057392759 31.826343642754566 41.117127057392757 34.600343642754510 38.878127057392753 35.294343642754498 z" />
<glyph unicode="A" horiz-adv-x="94.82099012819981" d="M1.703376708447806 1.693092985756550 C0.481376708447804 4.112092985756561 32.914376708447804 114.930092985757340 34.336376708447816 116.532092985757340 C35.758376708447813 118.133092985757340 59.254376708447808 117.796092985757350 60.960376708447811 116.881092985757360 C62.666376708447814 115.966092985757340 93.987376708447798 3.856092985756554 93.134376708447789 2.026092985756570 C92.281376708447780 0.196092985756593 64.538376708447800 0.680092985756566 63.258376708447798 2.052092985756580 C61.978376708447797 3.425092985756571 55.154376708447799 35.909092985757269 55.012376708447803 36.137092985757278 C53.875376708447803 36.595092985757276 39.800376708447800 37.281092985757297 38.378376708447803 35.679092985757293 C38.378376708447803 35.679092985757293 31.838376708447800 3.652092985756603 30.559376708447797 2.051092985756604 C29.280376708447793 0.450092985756598 2.926376708447805 -0.725907014243461 1.703376708447806 1.693092985756550 zM53.181376708447800 47.575092985756584 C52.328376708447806 52.379092985756586 48.916376708447800 68.164092985756525 47.210376708447797 80.974092985756528 C45.077376708447794 68.163092985756535 41.381376708447803 50.777092985756596 40.670376708447805 46.889092985756605 C41.949376708447801 46.431092985756607 51.901376708447799 46.889092985756591 53.181376708447800 47.575092985756584 z" />
<glyph unicode="B" horiz-adv-x="84.11782590069231" d="M37.897168990662422 117.735896420387090 C59.435168990662426 117.256896420387050 74.211168990662429 110.483896420387520 73.793168990662423 93.086896420387518 C73.491168990662430 80.480896420387523 64.491168990662430 74.480896420387424 57.741168990662423 72.480896420387424 C64.241168990662430 70.480896420387424 81.212168990662420 62.934896420387233 81.613168990662416 37.871896420387216 C82.014168990662412 12.808896420387200 64.221168990662420 0.952896420387845 38.376168990662421 0.473896420387945 C12.531168990662415 -0.005103579611969 7.266168990662420 0.712896420387821 4.873168990662419 3.105896420387822 C2.480168990662419 5.498896420387823 0.805168990662423 112.469896420387100 3.916168990662422 114.623896420387100 C7.027168990662425 116.777896420387090 12.058168990662423 118.310896420387310 37.897168990662422 117.735896420387090 zM34.155168990662425 96.660896420387616 C33.905168990662425 95.160896420387616 34.155168990662425 87.910896420387587 34.405168990662425 86.160896420387587 C35.988168990662423 85.910896420387587 41.630168990662426 86.908896420387620 41.322168990662426 91.077896420387617 C40.988168990662423 95.577896420387617 35.988168990662423 96.577896420387617 34.155168990662425 96.660896420387616 zM35.705168990662422 56.877896420387614 C35.705168990662422 53.377896420387614 36.455168990662422 28.877896420387195 36.955168990662422 25.627896420387195 C39.038168990662420 25.210896420387193 52.573168990662424 25.894896420387354 51.872168990662431 39.294896420387360 C51.038168990662427 55.211896420387362 38.371168990662419 57.544896420387616 35.705168990662422 56.877896420387614 z" />
<glyph unicode="C" horiz-adv-x="84.581473445640654" d="M80.873736722820269 91.716999999999999 C82.217736722820263 86.515000000000001 62.080736722820262 82.347999999999999 61.123736722820269 85.400000000000006 C54.623736722820269 106.120000000000000 29.336736722820358 96.200000000000017 32.123736722820269 63.164000000000001 C34.873736722820269 30.567000000000007 54.873736722820269 29.808999999999997 58.873736722820269 36.632000000000005 C60.544736722820275 39.481999999999999 83.644736722820269 31.085000000000008 82.380736722820274 27.819000000000003 C64.373736722820240 -18.706999999999994 2.123736722820256 -4.555999999999983 2.123736722820269 64.932999999999993 C2.123736722820322 121.787000000000010 69.123736722820283 137.200999999999990 80.873736722820269 91.716999999999999 z" />
<glyph unicode="D" horiz-adv-x="91.835150610595974" d="M89.545456599549482 60.237092985756803 C94.260456599549485 15.662092985756800 57.247456599549480 -7.325907014243470 3.855456599549484 1.243092985756547 C1.508456599549483 1.620092985756557 1.843456599549484 116.849092985756540 4.185456599549482 117.253092985756550 C57.576456599549473 126.482092985756570 85.920456599549482 94.513092985756799 89.545456599549482 60.237092985756803 zM33.590456599549476 90.952556033324441 C33.260456599549478 85.679556033324431 35.897456599549479 41.516556033324221 37.215456599549476 33.606556033324225 C49.409456599549479 31.299556033324215 65.821456599549492 46.861556033324405 61.274456599549481 66.564556033324408 C57.319456599549483 83.701556033324394 41.170456599549475 91.611556033324433 33.590456599549476 90.952556033324441 z" />
<glyph unicode="E" horiz-adv-x="76.794474924337692" d="M3.768313884551041 115.829222526070620 C1.202313884551039 112.524222526070620 2.164313884551042 1.462222526070576 4.089313884551043 0.470222526070586 C6.014313884551044 -0.521777473929404 71.775313884551053 -1.512777473929404 74.021313884551049 0.801222526070589 C76.267313884551044 3.115222526070582 72.096313884551051 34.186222526070594 69.851313884551047 36.169222526070598 C67.605313884551052 38.152222526070602 40.018313884551048 29.889222526070597 37.131313884551048 29.889222526070597 C36.169313884551045 33.194222526070604 34.565313884551045 55.010222526070592 34.565313884551045 55.010222526070592 C34.565313884551045 55.010222526070592 49.321313884551046 53.027222526070588 50.925313884551045 55.341222526070595 C52.529313884551044 57.655222526070602 51.567313884551041 70.876222526070592 50.283313884551049 72.529222526070598 C49.000313884551048 74.182222526070589 33.281313884551054 72.529222526070598 33.281313884551054 72.529222526070598 C33.281313884551054 72.529222526070598 31.998313884551049 86.412222526070593 31.677313884551054 91.370222526070592 C36.489313884551052 90.378222526070601 66.643313884551063 84.098222526070600 68.568313884551046 85.090222526070590 C70.493313884551029 86.082222526070595 72.417313884551049 114.839222526070600 70.814313884551041 116.491222526070600 C69.211313884551032 118.143222526070600 6.334313884551040 119.135222526070620 3.768313884551041 115.829222526070620 z" />
<glyph unicode="F" horiz-adv-x="72.809132912296263" d="M3.373360493451767 115.782127682163180 C0.807360493451768 112.484127682163180 1.769360493451767 1.658127682162203 3.694360493451768 0.668127682162194 C5.619360493451769 -0.321872317837816 41.855360493451769 -1.429872317837805 44.101360493451764 0.879127682162220 C46.347360493451760 3.188127682162246 37.101360493451764 55.117127682163101 37.101360493451764 55.117127682163101 C37.101360493451764 55.117127682163101 48.925360493451763 53.112127682163106 50.529360493451762 55.421127682163103 C52.133360493451761 57.730127682163101 51.171360493451758 70.923127682162971 49.887360493451766 72.573127682162976 C48.604360493451765 74.222127682162977 34.100360493451767 72.597127682162977 34.100360493451767 72.597127682162977 C34.100360493451767 72.597127682162977 31.602360493451769 86.426127682163113 31.281360493451764 91.374127682163106 C36.093360493451762 90.384127682163111 66.247360493451765 84.118127682163021 68.172360493451762 85.107127682163025 C70.097360493451760 86.097127682163020 72.021360493451766 114.792127682163200 70.418360493451758 116.442127682163200 C68.813360493451768 118.091127682163190 5.939360493451767 119.080127682163180 3.373360493451767 115.782127682163180 z" />
<glyph unicode="G" horiz-adv-x="92.243059106424653" d="M89.173987230690472 63.922576828342088 C97.683987230690491 1.480576828342080 52.315987230690460 -12.217423171658240 23.350987230690478 8.813576828341738 C23.100987230690478 8.994576828341735 22.852987230690481 9.178576828341775 22.604987230690476 9.364576828341782 C5.375987230690470 22.306576828341790 -3.603012769309533 48.580576828342082 5.392987230690476 78.293576828342069 C22.857987230690519 135.976576828342080 87.426987230690472 126.834576828342090 87.628987230690470 82.741576828342090 C87.652987230690471 77.422576828342088 66.655987230690471 78.672576828342073 66.565987230690467 81.838576828342070 C65.961987230690468 103.336576828342090 32.110987230690476 105.678576828342100 33.129987230690467 61.942576828342105 C34.017987230690451 23.813576828342100 68.494987230690469 21.837576828342286 68.684987230690467 45.813576828342285 C68.684987230690467 45.813576828342285 53.951987230690463 43.843576828342286 52.396987230690470 45.676576828342284 C50.825987230690473 47.526576828342279 48.112987230690464 66.323576828342055 50.440987230690467 66.693576828342060 C55.888987230690475 67.559576828342074 88.518987230690470 68.731576828342085 89.173987230690472 63.922576828342088 z" />
<glyph unicode="H" horiz-adv-x="90.896454351561374" d="M45.307303598162818 62.722043419461578 C42.806303598162820 62.722043419461578 39.357303598162815 63.053043419461581 39.357303598162815 63.053043419461581 C39.357303598162815 63.053043419461581 38.696303598162821 114.635043419461770 37.474303598162820 115.887043419461780 C34.889303598162819 118.537043419461780 12.541303598162823 118.868043419461770 8.807303598162822 116.218043419461760 C5.073303598162818 113.568043419461770 -0.157696401837178 3.924043419460809 2.140303598162820 1.606043419460825 C4.438303598162818 -0.711956580539152 35.796303598162815 -1.043956580539202 37.807303598162818 1.275043419460822 C38.646303598162817 2.243043419460811 39.177303598162823 21.897043419461802 39.323303598162816 44.668043419461803 C39.323303598162816 44.668043419461803 42.285303598162820 45.188043419461806 44.890303598162816 45.332043419461804 C46.244303598162816 45.407043419461814 51.024303598162817 44.666043419461808 51.024303598162817 44.666043419461808 C51.024303598162817 44.666043419461808 52.179303598162818 1.583043419460772 53.140303598162816 0.613043419460801 C55.438303598162818 -1.705956580539194 86.796303598162837 -0.711956580539123 88.807303598162832 1.607043419460858 C90.818303598162828 3.926043419460847 82.725303598162839 113.901043419461770 80.140303598162831 116.551043419461780 C77.555303598162823 119.201043419461770 56.874303598162825 119.201043419461770 53.140303598162816 116.551043419461780 C51.379303598162821 115.301043419461780 50.768303598162817 89.970043419461575 50.855303598162820 63.301043419461578 C50.855303598162820 63.300043419461574 46.974303598162820 62.722043419461578 45.307303598162818 62.722043419461578 z" />
<glyph unicode="I" horiz-adv-x="69.743485210725908" d="M6.784689487431055 115.269717521072720 C9.208689487431055 117.602717521072720 59.805689487431053 119.602717521072720 61.926689487431048 116.269717521072720 C64.047689487431043 112.936717521072720 64.653689487431052 92.602717521072634 62.835689487431054 91.269717521072636 C61.017689487431042 89.935717521072633 46.171689487431053 91.602717521072634 46.171689487431053 91.602717521072634 C46.171689487431053 91.602717521072634 45.987689487431055 73.256717521072545 46.474689487431050 59.602717521072549 C47.080689487431044 42.602717521072549 49.201689487431040 29.602717521072712 49.201689487431040 29.602717521072712 C49.201689487431040 29.602717521072712 63.744689487431032 32.269717521072714 65.865689487431041 29.935717521072711 C67.986689487431036 27.602717521072712 68.289689487431048 3.268717521071778 66.168689487431038 0.935717521071780 C64.047689487431029 -1.397282478928219 5.270689487431042 -1.064282478928220 3.149689487431047 0.935717521071780 C1.028689487431052 2.935717521071780 1.028689487431056 27.602717521072712 3.754689487431054 29.269717521072714 C6.481689487431055 30.936717521072715 18.600689487431055 28.269717521072714 18.600689487431055 28.269717521072714 C18.600689487431055 28.269717521072714 20.441689487431049 42.947717521072533 21.024689487431054 60.602717521072542 C21.630689487431056 78.935717521072533 21.327689487431051 90.269717521072607 21.327689487431051 90.269717521072607 C21.327689487431051 90.269717521072607 7.164689487431048 87.309717521072628 4.966689487431050 90.936717521072623 C3.149689487431052 93.935717521072618 4.360689487431054 112.935717521072720 6.784689487431055 115.269717521072720 z" />
<glyph unicode="J" horiz-adv-x="75.883648189862811" d="M64.615901959158549 91.724043419461708 C67.508901959158550 72.843043419461708 69.955901959158552 48.166043419461808 67.572901959158543 36.490043419461806 C62.225901959158556 10.296043419461810 47.361901959158544 -1.905956580539169 25.497901959158547 0.775043419460793 C4.045901959158543 3.405043419460803 0.500901959158547 29.929043419461784 1.712901959158545 35.212043419461786 C2.924901959158545 40.495043419461787 22.864901959158551 46.196043419461780 25.712901959158550 45.025043419461788 C28.560901959158549 43.853043419461791 19.311901959158551 20.355043419461779 31.936901959158551 23.352043419461786 C44.595901959158553 26.357043419461775 38.716901959158541 64.673043419461678 34.272901959158546 91.387043419461676 C34.272901959158546 91.387043419461676 8.636901959158552 87.771043419461648 7.769901959158551 88.651043419461644 C5.769901959158551 90.681043419461645 4.130901959158551 113.567043419461780 6.769901959158551 114.705043419461790 C20.102901959158551 120.457043419461780 65.769901959158545 117.750043419461780 70.769901959158545 114.367043419461780 C73.326901959158548 112.637043419461780 75.769901959158545 93.388043419461681 74.102901959158544 91.358043419461680 C73.720901959158539 90.892043419461700 64.615901959158549 91.724043419461708 64.615901959158549 91.724043419461708 z" />
<glyph unicode="K" horiz-adv-x="89.841212808004343" d="M3.095473901687358 114.958823310102730 C0.095473901687358 110.958823310102730 4.095473901687358 1.958823310102730 4.762473901687359 0.625823310102732 C5.429473901687360 -0.707176689897267 31.875473901687361 -0.752176689897254 33.818473901687355 0.936823310102739 C35.354473901687356 2.271823310102747 31.947473901687353 36.699823310102374 31.485473901687360 48.269823310102367 C52.818473901687369 30.269823310102367 58.761473901687353 0.958823310102730 62.095473901687356 0.291823310102728 C65.428473901687354 -0.375176689897273 87.762473901687358 10.291823310102728 88.095473901687356 14.291823310102728 C88.428473901687354 18.291823310102728 68.152473901687358 53.269823310102510 48.485473901687357 63.602823310102508 C70.818473901687355 77.602823310102508 81.761473901687367 105.958823310102640 81.428473901687354 109.291823310102640 C81.095473901687356 112.625823310102650 58.095473901687356 119.625823310102730 53.095473901687356 117.958823310102730 C51.197473901687360 117.326823310102740 48.485473901687371 90.603823310102513 30.818473901687359 75.269823310102524 C30.485473901687364 94.269823310102510 32.208473901687356 114.913823310102740 27.818473901687359 117.602823310102740 C24.577473901687359 119.588823310102740 6.095473901687358 118.958823310102730 3.095473901687358 114.958823310102730 z" />
<glyph unicode="L" horiz-adv-x="79.860122625908048" d="M4.566549660728771 117.112776715021570 C2.233549660728773 114.411776715021570 0.566549660728771 2.328776715020545 2.566549660728771 0.640776715020557 C4.566549660728771 -1.047223284979424 71.233549660728769 -0.372223284979398 73.233549660728769 1.315776715020611 C75.233549660728769 3.003776715020628 80.566549660728782 32.037776715021593 77.566549660728782 33.725776715021581 C74.566549660728782 35.413776715021569 38.899549660728766 26.973776715021586 34.566549660728768 27.986776715021577 C33.233549660728784 57.695776715021580 34.566549660728768 112.386776715021580 30.566549660728768 115.762776715021570 C28.566549660728768 117.450776715021580 6.900549660728775 119.813776715021580 4.566549660728771 117.112776715021570 z" />
<glyph unicode="M" horiz-adv-x="128.60518787744775" d="M1.835531584693317 1.422296207564969 C0.319531584693319 3.422296207564969 26.595531584693319 115.422296207565890 28.468531584693309 117.089296207565890 C30.342531584693312 118.756296207565900 53.477531584693310 118.089296207565890 55.101531584693305 116.756296207565900 C56.726531584693305 115.423296207565900 63.701531584693299 72.756296207565683 63.701531584693299 72.756296207565683 C63.701531584693299 72.756296207565683 71.197531584693294 115.756296207565900 73.514531584693302 117.423296207565900 C73.514531584693302 117.423296207565900 98.028531584693312 119.090296207565900 99.819531584693323 117.423296207565900 C101.610531584693330 115.756296207565900 127.994531584693330 3.090296207564975 126.781531584693310 1.423296207564974 C125.568531584693290 -0.243703792435028 93.010531584693311 -0.243703792435028 90.941531584693308 1.423296207564974 C88.872531584693306 3.090296207564975 80.684531584693332 54.090296207565828 80.684531584693332 54.090296207565828 C80.684531584693332 54.090296207565828 66.328531584693323 7.090296207565260 63.650531584693326 6.423296207565258 C60.972531584693328 5.756296207565256 45.502531584693330 53.090296207565842 45.502531584693330 53.090296207565842 C45.502531584693330 53.090296207565842 39.801531584693329 3.090296207564975 37.346531584693331 1.423296207564974 C34.892531584693316 -0.244703792435004 3.352531584693315 -0.577703792435031 1.835531584693317 1.422296207564969 z" />
<glyph unicode="N" horiz-adv-x="95.465789582786329" d="M1.580879202885512 1.044043419460841 C1.580879202885512 1.044043419460841 4.830879202885512 114.794043419461810 7.580879202885512 117.044043419461810 C10.330879202885514 119.294043419461810 33.330879202885512 118.544043419461810 36.080879202885512 117.044043419461810 C38.830879202885512 115.544043419461810 60.080879202885512 63.044043419461616 60.080879202885512 63.044043419461616 C60.080879202885512 63.044043419461616 61.580879202885512 115.794043419461810 63.080879202885512 117.044043419461810 C64.580879202885512 118.294043419461810 87.830879202885512 118.294043419461810 89.580879202885512 116.544043419461810 C91.330879202885512 114.794043419461810 94.580879202885512 2.794043419460841 93.080879202885512 1.044043419460841 C91.580879202885512 -0.705956580539151 57.830879202885512 0.044043419460849 56.080879202885512 1.044043419460841 C54.330879202885512 2.044043419460841 37.080879202885512 56.044043419461708 37.080879202885512 56.044043419461708 C37.080879202885512 56.044043419461708 39.330879202885512 3.044043419460870 37.580879202885512 1.544043419460870 C35.830879202885512 0.044043419460877 1.580879202885512 1.044043419460841 1.580879202885512 1.044043419460841 z" />
<glyph unicode="O" horiz-adv-x="95.341643518838396" d="M92.460256989262120 51.185043419461792 C88.960256989262120 14.084043419461793 67.460256989262120 -2.405956580539197 38.214256989262125 0.569043419460833 C18.792256989262121 2.545043419460825 1.168256989262101 20.925043419461737 2.073256989262125 55.471043419461743 C2.870256989262130 85.932043419461735 30.146256989262127 117.505043419461900 52.697256989262137 118.143043419461830 C82.419256989262124 118.984043419461770 95.164256989262114 79.854043419461760 92.460256989262120 51.185043419461792 zM32.364256989262117 55.413043419461715 C32.364256989262117 35.832043419461712 49.538256989262109 30.994043419461818 59.864256989262117 42.015043419461819 C73.864256989262117 56.959043419461821 61.862256989262121 84.836043419461646 50.864256989262117 84.269043419461624 C40.864256989262117 83.754043419461624 32.364256989262117 66.749043419461714 32.364256989262117 55.413043419461715 z" />
<glyph unicode="P" horiz-adv-x="84.418844405135474" d="M4.193029739776934 3.205542675505932 C1.082029739776933 5.359542675505928 2.757029739776934 112.330542675506820 5.150029739776935 114.723542675506820 C7.543029739776936 117.116542675506820 12.808029739776934 117.834542675506730 38.653029739776933 117.355542675506830 C64.498029739776939 116.876542675506900 81.215029739776938 105.013542675506590 81.890029739776935 79.957542675506588 C82.768029739776949 47.368542675506589 46.268029739776928 41.868542675506838 39.268029739776928 41.868542675506838 C40.268029739776921 28.368542675506838 43.896029739776928 6.488542675505897 38.268029739776928 2.368542675505893 C33.863029739776934 -0.855457324494097 7.304029739776935 1.051542675505935 4.193029739776934 3.205542675505932 zM52.266029739776940 80.398542675506505 C52.968029739776938 93.797542675506506 37.849029739776938 94.834542675506697 35.766029739776940 94.417542675506695 C35.266029739776940 91.167542675506695 37.266029739776940 65.917542675506553 37.266029739776940 62.417542675506553 C39.932029739776937 61.750542675506551 51.432029739776929 64.481542675506503 52.266029739776940 80.398542675506505 zM-8.550185873605869 57.375464684014901 C-10.089219330854945 57.375464684014901 -13.167286245353097 57.375464684014901 -14.706319702602173 57.375464684014901 C-13.167286245353097 57.375464684014901 -8.550185873605869 57.375464684014901 -8.550185873605869 57.375464684014901 z" />
<glyph unicode="Q" horiz-adv-x="103.7151688524666" d="M51.243584426233184 36.850773658505361 C46.590584426233185 33.616773658505366 32.396584426233176 40.854773658505138 32.396584426233183 55.474773658505129 C32.396584426233183 66.760773658505130 40.896584426233183 83.688773658505198 50.896584426233176 84.201773658505203 C60.016584426233180 84.669773658505221 70.396584426233176 64.451773658505076 65.396584426233176 51.113773658505082 C58.396584426233176 58.038773658505079 56.309584426233172 63.302773658505210 55.396584426233176 63.168773658505224 C51.896584426233176 62.655773658505218 47.896584426233176 54.447773658505092 47.896584426233176 51.369773658505089 C47.896584426233190 50.644773658505081 48.896584426233190 41.880773658505348 51.243584426233184 36.850773658505361 zM84.157584426233186 -0.492098747359137 C86.657584426233186 -0.492098747359137 102.657584426233190 16.436901252640880 101.657584426233190 21.053901252640870 C101.285584426233190 22.771901252640873 92.907584426233186 25.157901252640869 87.907584426233186 30.543901252640865 C89.192584426233182 32.652901252640859 91.842584426233188 42.723901252640481 92.657584426233186 51.319901252640484 C95.362584426233184 79.860901252640446 82.617584426233208 118.814901252640880 52.894584426233216 117.978901252640870 C30.343584426233207 117.343901252640900 3.067584426233214 85.911901252640547 2.270584426233201 55.586901252640544 C1.366584426233194 21.194901252640705 18.989584426233208 2.896901252640859 38.411584426233205 0.929901252640860 C50.376584426233201 -0.282098747359115 56.657584426233207 0.019901252640864 69.715584426233193 7.103901252640867 C74.657584426233200 1.302901252640851 83.262584426233190 -0.492098747359137 84.157584426233186 -0.492098747359137 z" />
<glyph unicode="R" horiz-adv-x="91.203019121718398" d="M51.729868368319863 80.117821354547743 C51.529868368319860 93.708821354547752 35.941868368319874 94.898821354547749 33.857868368319870 94.476821354547752 C33.272868368319862 90.625821354547753 35.357868368319870 80.226821354547752 35.607868368319870 67.226821354547752 C38.274868368319872 66.551821354547741 51.896868368319851 68.825821354547713 51.729868368319863 80.117821354547743 zM64.330868368319869 51.773821354547749 C83.617868368319847 35.312821354547744 91.298868368319873 5.512821354547725 88.881868368319871 3.486821354547715 C86.464868368319870 1.460821354547704 59.195868368319857 -0.396178645452295 53.327868368319862 2.979821354547710 C50.768868368319865 4.452821354547723 51.630868368319867 24.773821354547735 37.995868368319861 40.643821354547740 C37.995868368319861 40.643821354547740 41.591868368319865 6.018821354547697 37.794868368319868 3.317821354547704 C33.221868368319861 0.064821354547689 6.936868368319862 0.463821354547690 3.714868368319865 2.645821354547707 C0.492868368319868 4.827821354547723 2.227868368319866 112.514821354547730 4.705868368319869 114.938821354547730 C7.183868368319873 117.362821354547720 12.635868368319869 118.089821354547840 39.400868368319877 117.605821354547710 C66.165868368319877 117.121821354547620 82.889868368319881 105.081821354547740 84.175868368319883 79.721821354547757 C84.912868368319863 65.195821354547746 76.239868368319875 56.205821354547751 64.330868368319869 51.773821354547749 z" />
<glyph unicode="S" horiz-adv-x="77.58115559486464" d="M73.508836799749346 98.670826640626075 C71.582836799749344 106.247826640626070 51.679836799749353 118.211826640626070 36.591836799749345 117.812826640626080 C21.503836799749340 117.413826640626100 3.890836799749373 109.014826640625870 2.563836799749351 83.117826640625879 C1.861836799749352 69.408826640625833 8.020836799749354 57.195826640626002 17.009836799749351 54.404826640625984 C32.831836799749340 49.490826640625968 46.864836799749348 47.226826640626079 42.690836799749349 34.065826640626078 C38.035836799749354 19.386826640626076 16.045836799749360 42.440826640626078 12.514836799749355 46.029826640626077 C11.023836799749356 47.544826640626077 0.315836799749356 19.310826640625805 1.599836799749356 13.328826640625806 C2.883836799749355 7.346826640625807 20.499836799749350 0.566826640625074 32.096836799749354 0.566826640625074 C60.667836799749352 0.566826640625074 72.157836799749361 8.989826640626092 75.112836799749346 26.089826640626086 C77.731836799749345 41.243826640626082 72.865836799749346 55.201826640625860 60.987836799749346 63.576826640625860 C48.866836799749350 72.122826640625874 31.132836799749342 70.119826640625860 31.132836799749345 82.319826640625848 C31.132836799749345 99.866826640625845 53.282836799749333 93.087826640625849 63.876836799749341 72.349826640625835 C65.949836799749349 68.295826640625847 75.248836799749355 91.825826640626076 73.508836799749346 98.670826640626075 z" />
<glyph unicode="T" horiz-adv-x="93.489586932187194" d="M3.284770083332081 117.029874894059090 C4.821770083332080 118.200874894059100 89.186770083332078 119.141874894059100 91.051770083332073 116.367874894059100 C92.916770083332068 113.593874894059100 90.878770083332071 91.494874894058967 88.759770083332072 89.226874894058966 C86.640770083332072 86.958874894058965 61.577770083332069 87.902874894058954 61.577770083332069 87.902874894058954 C61.577770083332069 87.902874894058954 66.817770083332064 3.169874894058097 64.852770083332075 1.183874894058107 C62.887770083332086 -0.802125105941883 32.431770083332076 -0.140125105941905 30.793770083332078 1.183874894058107 C29.156770083332077 2.507874894058119 31.448770083332079 87.240874894058948 31.448770083332079 87.240874894058948 C31.448770083332079 87.240874894058948 7.457770083332081 86.356874894058961 4.921770083332078 88.564874894058960 C2.385770083332076 90.772874894058958 1.747770083332082 115.859874894059090 3.284770083332081 117.029874894059090 z" />
<glyph unicode="U" horiz-adv-x="99.418194883984484" d="M9.669081853484542 116.098790631358430 C-3.276918146515472 71.765790631358428 -4.166918146515464 0.265790631358058 49.945081853484538 0.015790631357390 C104.057081853484530 -0.234209368643306 103.057081853484530 73.432790631358415 89.420081853484547 116.432790631358430 C88.751081853484550 118.541790631358420 63.452081853484543 118.518790631358430 63.724081853484549 116.099790631358430 C66.603081853484554 90.432790631358429 75.779081853484556 39.432790631358316 50.418081853484551 39.099790631358431 C25.057081853484547 38.766790631358546 33.620081853484550 91.099790631358431 36.057081853484547 116.432790631358430 C36.288081853484542 118.835790631358420 10.530081853484543 119.045790631358410 9.669081853484542 116.098790631358430 z" />
<glyph unicode="V" horiz-adv-x="96.319511576671175" d="M2.479144086460760 116.434620525914200 C-0.187855913539238 114.434620525914200 28.146144086460758 2.767620525913188 30.479144086460757 1.434620525913189 C32.812144086460755 0.101620525913191 64.479144086460764 -0.232379474086798 66.479144086460764 1.767620525913209 C68.479144086460764 3.767620525913209 95.479144086460764 115.100620525914200 93.812144086460762 116.767620525914200 C92.145144086460760 118.434620525914200 69.145144086460760 118.434620525914200 66.812144086460762 117.100620525914200 C64.479144086460764 115.767620525914200 48.479144086460757 55.767620525914097 48.479144086460757 55.767620525914097 C48.479144086460757 55.767620525914097 32.146144086460758 114.767620525914200 30.146144086460758 116.434620525914200 C28.145144086460760 118.101620525914200 5.145144086460764 118.434620525914200 2.479144086460760 116.434620525914200 z" />
<glyph unicode="W" horiz-adv-x="114.61975373474661" d="M3.156814513342697 116.490422403537020 C1.640814513342699 114.490422403537020 12.615814513342698 2.823422403536029 14.489814513342695 1.157422403536032 C16.363814513342696 -0.509577596463970 48.048814513342691 0.454422403536071 49.672814513342693 1.787422403536063 C51.297814513342693 3.120422403536061 58.272814513342688 45.787422403537043 58.272814513342688 45.787422403537043 C58.272814513342688 45.787422403537043 65.768814513342676 2.787422403536027 68.085814513342683 1.120422403536026 C68.085814513342683 1.120422403536026 100.364814513342710 0.157422403536074 102.155814513342700 1.823422403536071 C103.946814513342700 3.490422403536073 112.701814513342700 115.823422403537040 111.488814513342700 117.490422403537040 C110.275814513342710 119.157422403537040 86.557814513342706 118.490422403537040 84.488814513342703 116.823422403537040 C82.419814513342700 115.156422403537040 75.255814513342699 64.453422403536820 75.255814513342699 64.453422403536820 C75.255814513342699 64.453422403536820 60.899814513342697 111.453422403537030 58.221814513342700 112.120422403537030 C55.543814513342703 112.787422403537040 40.073814513342697 65.453422403536806 40.073814513342697 65.453422403536806 C40.073814513342697 65.453422403536806 33.610814513342696 115.156422403537040 31.155814513342698 116.823422403537020 C28.701814513342697 118.490422403537020 4.672814513342695 118.490422403537020 3.156814513342697 116.490422403537020 z" />
<glyph unicode="X" horiz-adv-x="95.161758405771025" d="M5.947832437362550 116.169606425316740 C6.780832437362549 118.589606425316730 30.947832437362553 118.452606425316740 34.614832437362551 115.494606425316730 C38.281832437362553 112.536606425316730 46.614832437362551 88.823606425316598 46.614832437362551 88.823606425316598 C46.614832437362551 88.823606425316598 58.281832437362553 113.917606425316730 61.114832437362566 116.069606425316730 C63.947832437362564 118.220606425316730 85.114832437362551 118.758606425316740 87.781832437362553 116.069606425316730 C90.448832437362555 113.380606425316730 62.614832437362566 58.439606425316590 62.614832437362566 58.439606425316590 C62.614832437362566 58.439606425316590 95.140832437362562 7.921606425315893 92.974832437362551 3.887606425315902 C90.807832437362549 -0.146393574684083 61.711832437362560 -1.698393574684246 59.198832437362569 1.546606425315758 C56.698832437362569 4.773606425315762 46.948832437362569 25.016606425316738 46.948832437362569 25.016606425316738 C46.948832437362569 25.016606425316738 38.781832437362567 3.873606425315764 35.281832437362567 1.721606425315777 C31.781832437362564 -0.429393574684227 4.057832437362560 -0.915393574684146 1.891832437362560 3.118606425315846 C-0.275167562637442 7.152606425315838 30.948832437362565 59.114606425316595 30.948832437362565 59.114606425316595 C30.948832437362565 59.114606425316595 5.114832437362546 113.748606425316740 5.947832437362550 116.169606425316740 z" />
<glyph unicode="Y" horiz-adv-x="96.282527881040892" d="M34.699999999999996 50.686186516803275 C34.699999999999996 50.686186516803275 27.699999999999996 4.353186516802332 30.032999999999994 2.353186516802332 C32.365999999999993 0.353186516802339 63.366000000000000 -0.313813483197720 67.033000000000001 1.686186516802287 C67.675820717131472 2.036784126364040 67.929388692242981 3.759983948589117 67.910421337079896 6.363781179658226 C67.821188552562660 18.613463607642437 61.700000000000003 50.353186516803277 61.700000000000003 50.353186516803277 C61.700000000000003 50.353186516803277 95.700000000000003 117.586186516803310 94.033000000000001 118.559186516803310 C92.366000000000000 119.532186516803310 69.366000000000000 119.532186516803310 67.033000000000001 118.754186516803320 C64.700000000000003 117.976186516803310 48.699999999999989 82.952186516803053 48.699999999999989 82.952186516803053 C48.699999999999989 82.952186516803053 32.366999999999990 117.392186516803290 30.366999999999990 118.365186516803310 C28.366999999999990 119.338186516803290 5.366999999999990 119.532186516803310 2.699999999999989 118.365186516803310 C0.032999999999994 117.197186516803300 34.699999999999996 50.686186516803275 34.699999999999996 50.686186516803275 z" />
<glyph unicode="Z" horiz-adv-x="81.180124652782524" d="M2.938074446179561 116.179790631357730 C3.991074446179562 117.822790631357730 80.663074446179564 119.465790631357730 80.452074446179566 115.768790631357730 C80.241074446179567 112.071790631357730 50.496074446179556 41.845790631357730 50.496074446179556 41.845790631357730 C50.496074446179556 41.845790631357730 74.566074446179570 47.785790631357727 75.829074446179561 44.910790631357727 C77.092074446179552 42.035790631357727 79.609074446179562 4.045790631356795 78.135074446179559 2.402790631356794 C76.661074446179555 0.759790631356793 3.725074446179558 -3.064209368643205 1.829074446179556 2.685790631356795 C-0.066925553820440 8.435790631356795 38.829074446179554 87.476790631357545 38.829074446179554 87.476790631357545 C38.829074446179554 87.476790631357545 5.759074446179556 78.331790631357478 4.496074446179557 82.028790631357481 C3.233074446179559 85.725790631357484 1.885074446179560 114.536790631357730 2.938074446179561 116.179790631357730 z" />
<glyph unicode="\" horiz-adv-x="91.44877765647243" d="M90.883450072955782 8.399437081669269 C90.883450072955867 4.466351579810521 84.898319961431710 -0.150748791936721 80.965234459572969 -0.150748791936721 C77.032148957714142 0.533266077951751 31.495502540740247 69.720721874504434 11.659071313974428 99.475368714653115 C5.739785443121496 109.404493401245280 3.801557879647291 112.210719609550300 3.842557879647288 113.395719609550300 C3.927557879647296 115.818719609550300 6.026643381506025 116.123764219215760 7.775643381506020 115.447764219215770 L90.883450072955782 8.399437081669269 z" />
<glyph unicode="a" horiz-adv-x="78.109409764928614" d="M49.047120976769207 10.264402652945122 C32.393120976769197 -11.824597347054890 -3.883879023230787 4.561402652945006 2.649120976769204 42.996402652944994 C7.807120976769218 73.342402652944997 37.322120976769206 78.009402652945170 51.649120976769211 65.567402652945162 C51.909120976769216 68.586402652945168 52.236120976769215 71.003402652945155 52.690120976769208 71.386402652945165 C53.991120976769210 72.484402652945164 74.490120976769205 71.844402652945163 75.792120976769212 69.923402652945171 C76.362120976769205 69.082402652945177 75.011120976769206 57.243402652944930 75.011120976769206 41.051402652944937 C75.011120976769206 16.624402652944930 77.473120976769209 1.843402652945663 76.303120976769208 1.072402652945677 C74.221120976769214 -0.299597347054331 50.739120976769215 0.467402652945665 49.819120976769199 1.437402652945664 C48.518120976769211 2.809402652945650 48.787120976769216 5.873402652945117 49.047120976769207 10.264402652945122 zM39.530120976769211 48.780402652945170 C33.554120976769212 49.835402652945177 28.625120976769210 44.564402652944878 27.775120976769209 38.778402652944877 C26.770120976769206 31.933402652944871 33.161120976769212 25.557402652944688 39.082120976769211 26.478402652944688 C45.013120976769208 27.400402652944685 49.407120976769207 31.970402652944848 49.573120976769218 37.821402652944855 C49.739120976769229 43.672402652944854 45.166120976769214 47.786402652945164 39.530120976769211 48.780402652945170 z" />
<glyph unicode="b" horiz-adv-x="83.39538453136845" d="M25.360999999999933 116.008092985755040 C28.878999999999934 115.003092985755050 30.027999999999977 84.341092985756617 30.862999999999978 67.477092985756613 C45.995999999999981 76.997092985756609 80.467999999999563 69.554092985756171 81.413999999999561 37.424092985756182 C82.359999999999545 5.294092985756187 56.361000000000004 -9.325907014243470 33.028000000000013 7.008092985756555 C33.264000000000010 2.010092985756565 35.016000000000020 3.391092985756650 33.125000000000021 1.963092985756653 C31.234000000000023 0.535092985756656 4.155999999999990 -0.761907014243349 3.386999999999993 2.723092985756630 C2.100000000000001 8.554092985756618 2.220999999999961 114.500465972124330 5.693999999999960 116.498465972124340 C11.211984633633421 117.983890954151210 17.406999999999933 118.281092985755040 25.360999999999933 116.008092985755040 zM37.482328132557711 36.049249397695732 C39.278328132557704 28.268249397695726 45.914328132557849 26.645249397695814 49.542328132557849 27.004249397695808 C54.995328132557852 27.543249397695810 59.453328132557843 33.589249397695816 58.336328132557846 40.069249397695820 C57.080328132557845 47.355249397695822 51.020328132557843 50.072249397696005 45.271328132557848 49.114249397696014 C40.748328132557845 48.360249397696023 35.974328132557702 42.581249397695728 37.482328132557711 36.049249397695732 z" />
<glyph unicode="c" horiz-adv-x="75.81777476817615" d="M73.310737344702133 48.458825258665755 C75.245737344702135 43.515825258665757 50.777737344702132 40.568825258665754 49.441737344702133 43.433825258665749 C44.165737344702137 54.740825258665751 29.089737344702129 51.222825258665758 29.064737344702138 36.897825258665748 C29.043737344702137 24.913825258665753 44.278737344702130 23.248825258665747 48.684737344702143 32.361825258665746 C50.107737344702144 35.304825258665744 75.066737344702148 28.066825258665745 73.813737344702147 24.840825258665745 C58.486737344702128 -14.606174741334229 5.083737344702133 -2.758174741334258 2.375737344702143 32.883825258665738 C-0.675262655297761 73.056825258665754 56.979737344702151 90.166825258665753 73.310737344702133 48.458825258665755 z" />
<glyph unicode="d" horiz-adv-x="84.153296204677531" d="M78.215328132557147 116.320249397694610 C81.688328132557146 114.322249397694610 81.810328132557146 8.533249397696203 80.523328132557140 2.702249397696214 C79.754328132557134 -0.782750602303793 52.676328132557835 0.513249397696235 50.785328132557844 1.942249397696237 C48.894328132557852 3.371249397696239 50.646328132557848 1.989249397696149 50.882328132557838 6.987249397696139 C27.549328132557839 -9.345750602303866 1.550328132557588 5.273249397695771 2.496328132557586 37.403249397695767 C3.442328132557588 69.533249397695755 37.913328132557844 76.976249397696222 53.046328132557839 67.456249397696197 C53.881328132557847 84.320249397696202 55.030328132557848 114.982249397694630 58.548328132557849 115.987249397694630 C66.502328132557835 118.260249397694620 72.530328132557145 119.590249397694610 78.215328132557147 116.320249397694610 zM38.473328132557711 49.114249397696014 C32.724328132557702 50.072249397696012 26.664328132557539 47.355249397695822 25.408328132557536 40.069249397695820 C24.291328132557538 33.589249397695816 28.749328132557618 27.543249397695810 34.202328132557611 27.004249397695808 C37.830328132557611 26.645249397695814 44.466328132557841 28.268249397695726 46.262328132557847 36.049249397695732 C47.770328132557843 42.581249397695728 42.996328132557707 48.360249397696023 38.473328132557711 49.114249397696014 z" />
<glyph unicode="e" horiz-adv-x="78.752942422944216" d="M74.643052076855426 22.491744430053849 C72.772052076855431 12.049744430053856 58.038052076855436 1.462744430052631 44.965052076855429 0.569744430052687 C20.053052076855430 -1.131255569947285 5.640052076855422 10.144744430053855 2.240052076855427 29.844744430053858 C-1.159947923144571 49.544744430053861 12.479052076855428 68.244744430053444 32.651052076855429 71.909744430053436 C71.186052076855418 78.909744430053451 82.045052076855427 38.252744430053824 75.396052076855426 33.516744430053819 C69.862052076855420 29.575744430053817 43.706052076855428 25.107744430053842 28.366052076855425 29.982744430053849 C28.471052076855422 24.288744430053846 30.512052076855426 18.382744430053826 36.379052076855423 17.355744430053825 C42.420052076855427 16.298744430053823 45.427052076855425 20.931744430053847 47.501052076855423 21.283744430053851 C60.491052076855425 23.489744430053847 75.005052076855435 24.512744430053850 74.643052076855426 22.491744430053849 zM30.215052076855429 41.773744430053540 C35.645052076855428 38.813744430053553 45.676052076855427 39.239744430053562 47.414052076855427 41.132744430053563 C51.119052076855425 45.168744430053565 48.257052076855430 52.746744430053340 42.007052076855430 52.956744430053341 C38.123052076855430 53.087744430053341 32.052052076855432 49.130744430053539 30.215052076855429 41.773744430053540 z" />
<glyph unicode="f" horiz-adv-x="65.726473284412009" d="M57.113937111611634 60.620460098796322 C59.831937111611637 61.947460098796320 65.960937111611628 73.437460098796336 63.976937111611633 74.685460098796341 C63.181937111611632 75.185460098796341 47.770937111611630 74.186460098796331 39.998937111611632 74.851460098796338 C35.285937111611631 97.322460098796341 37.269937111611632 103.064460098796500 41.982937111611633 104.313460098796500 C51.350937111611628 106.794460098796490 50.912937111611626 94.825460098796313 48.183937111611627 90.581460098796313 C46.950937111611630 88.662460098796316 66.869937111611620 77.394460098796330 68.275937111611626 80.677460098796331 C76.543937111611626 99.985460098796338 70.921937111611626 117.962460098796440 47.108937111611624 118.295460098796720 C21.313937111611622 118.656460098796600 12.345937111611732 95.415460098796345 12.059937111611625 74.929460098796341 C12.059937111611625 74.929460098796341 2.497937111611627 75.252460098796348 2.294937111611624 75.184460098796350 C1.550937111611624 74.934460098796350 1.798937111611625 62.950460098796334 3.026937111611623 61.951460098796325 C3.359937111611622 61.681460098796329 6.793937111611623 61.739460098796378 11.718937111611623 61.784460098796323 C11.718937111611623 61.784460098796323 15.936937111611627 2.029460098795980 17.425937111611624 1.280460098795984 C18.914937111611621 0.531460098795989 50.208937111611618 -0.983539901204054 52.400937111611626 0.781460098795961 C54.880937111611630 2.778460098795975 48.265937111611628 38.868460098796348 43.222937111611628 61.119460098796331 C43.222937111611643 61.120460098796322 55.579937111611642 59.871460098796312 57.113937111611634 60.620460098796322 z" />
<glyph unicode="g" horiz-adv-x="81.563964013764348" d="M6.996324719116608 -13.858907014241936 C6.364324719116606 -10.929907014241934 23.375324719116605 -7.533907014241606 30.478324719116607 -7.533907014241606 C35.170324719116607 -7.533907014241606 31.464324719116604 -12.425907014241929 40.063324719116608 -13.424907014241924 C45.035324719116609 -14.001907014241922 56.910324719116609 -8.226907014240453 55.138324719116611 12.454092985759537 C38.932324719116608 -10.515907014240483 -1.184675280883377 1.521092985759843 2.270324719116609 35.794092985759860 C5.641324719116629 69.238092985759835 36.545324719116607 82.303092985759861 53.298324719116607 65.038092985759860 C53.063324719116608 69.996092985759859 52.648324719116601 70.595092985759862 54.525324719116611 72.012092985759864 C56.402324719116621 73.429092985759866 72.214324719116618 75.459092985759867 72.978324719116614 72.002092985759873 C74.255324719116615 66.218092985759867 78.016324719116611 45.198092985759871 79.426324719116607 22.094092985759858 C82.023324719116587 -20.459907014240144 74.201324719116613 -37.541907014243534 47.676324719116607 -41.073907014243474 C26.998324719116603 -43.825907014243455 11.671324719116598 -35.534907014241952 6.996324719116608 -13.858907014241936 zM46.984324719116593 36.721092985756528 C49.123324719116596 42.494092985756524 46.771324719116592 49.048092985756526 41.729324719116590 51.361092985756528 C36.687324719116589 53.674092985756531 30.948324719116592 51.345092985756523 27.933324719116591 45.315092985756522 C25.180324719116591 39.809092985756521 26.677324719116591 32.250092985756524 32.958324719116590 29.737092985756519 C39.330324719116589 27.189092985756524 44.845324719116590 30.949092985756522 46.984324719116593 36.721092985756528 z" />
<glyph unicode="h" horiz-adv-x="78.243819184367339" d="M4.323000000000004 0.781092985756544 C2.305000000000003 1.491092985756552 1.500000000000000 115.432092985756540 2.221000000000000 116.334092985756540 C3.613000000000000 118.074092985756540 22.008000000000020 118.021092985756550 23.971000000000021 116.584092985756540 C27.609000000000020 113.921092985756560 30.264000000000095 85.722092985756490 32.471000000000004 65.834092985756484 C41.731000000000002 74.822092985756484 58.233000000000033 74.684092985756479 66.832000000000022 63.699092985756479 C81.824000000000026 44.546092985756474 75.140000000000015 2.444092985756534 71.471000000000018 1.334092985756548 C68.177000000000021 0.337092985756527 49.230999999999966 0.091092985756561 43.511999999999958 1.386092985756541 C41.696999999999960 3.112092985756540 54.897999999999961 45.696092985756451 39.711999999999968 47.054092985756455 C30.220999999999968 48.584092985756456 37.124999999999964 3.831092985756563 35.470999999999968 1.834092985756548 C32.970999999999982 0.085092985756546 6.971000000000004 -1.164907014243454 4.323000000000004 0.781092985756544 z" />
<glyph unicode="i" horiz-adv-x="35.54631177936551" d="M7.356057526383953 72.448758069997609 C9.512057526383952 74.618758069997611 28.192057526383948 73.780758069997603 30.176057526383957 72.115758069997611 C32.160057526383959 70.450758069997605 36.129057526383960 2.872758069997843 31.830057526383953 1.540758069997821 C27.530057526383956 0.208758069997828 7.025057526383954 0.208758069997828 3.387057526383952 2.206758069997818 C-0.249942473616045 4.204758069997837 5.372057526383955 70.451758069997595 7.356057526383953 72.448758069997609 zM22.261057526383951 119.837357990386120 C13.633057526383951 122.558357990386130 3.974057526383953 115.880357990385920 1.979057526383951 107.570357990385930 C0.227057526383948 100.273357990385930 4.079057526383952 89.337357990385811 13.003057526383948 87.871357990385803 C22.235057526383947 86.355357990385812 30.685057526383950 91.747357990385751 33.224057526383952 99.905357990385738 C35.764057526383951 108.063357990385750 30.889057526383951 117.116357990386120 22.261057526383951 119.837357990386120 z" />
<glyph unicode="j" horiz-adv-x="65.002557910156042" d="M26.712208725931063 70.437965391621120 C30.738208725931059 72.457965391621116 48.301208725931062 72.094965391621116 50.581208725931063 69.683965391621115 C52.862208725931069 67.272965391621113 66.267208725931056 9.143965391621123 64.149208725931061 -10.718034608378900 C62.139208725931056 -29.562034608378895 50.079208725931068 -46.899034608378884 19.741208725931060 -44.474034608378901 C-1.631791274068942 -42.766034608378931 -5.060791274068940 -15.791034608378908 -3.857791274068941 -10.594034608378905 C-2.654791274068941 -5.396034608378898 17.129208725931058 0.212965391621083 19.955208725931058 -0.940034608378909 C22.781208725931059 -2.093034608378900 17.667208725931062 -17.000034608378911 26.461208725931058 -14.739034608378915 C45.563208725931062 -9.826034608378890 22.686208725931060 68.417965391621124 26.712208725931063 70.437965391621120 zM43.569208725931063 118.819270226719680 C35.508208725931063 122.941270226719680 24.884208725931060 117.965270226719680 21.549208725931067 110.102270226719670 C18.621208725931069 103.198270226719670 20.620208725931064 91.770270226719674 29.179208725931069 88.837270226719681 C38.034208725931066 85.802270226719671 48.309208725931072 89.256270226719664 52.156208725931066 96.878270226719678 C56.003208725931060 104.501270226719670 51.630208725931055 114.697270226719670 43.569208725931063 118.819270226719680 z" />
<glyph unicode="k" horiz-adv-x="79.896859726464072" d="M3.804439527738158 115.004297787606700 C0.742439527738156 111.101297787606710 2.364439527738158 2.870297787605800 2.997439527738161 1.533297787605783 C3.630439527738159 0.196297787605801 26.459439527738162 0.356297787605811 28.479439527738165 1.966297787605797 C30.499439527738168 3.576297787605782 26.415439527738158 13.592297787606697 26.264439527738162 21.867297787606688 C38.081439527738162 17.637297787606684 48.304439527738147 0.869297787605703 51.596439527738148 0.135297787605722 C54.888439527738150 -0.598702212394258 77.271439527738153 9.497297787606463 77.688439527738154 13.458297787606476 C78.105439527738156 17.419297787606489 52.335439527738153 34.198297787606705 43.472439527738146 37.371297787606707 C55.519439527738150 43.723297787606683 74.063439527738154 59.859297787606501 73.804439527738168 63.173297787606494 C73.545439527738154 66.487297787606494 50.881439527738159 73.934297787606468 45.885439527738164 72.389297787606480 C43.989439527738163 71.803297787606482 35.945439527738174 56.395297787606687 25.184439527738171 48.359297787606693 C26.512439527738174 79.101297787606697 37.739439527738163 112.185297787606690 32.613439527738173 116.355297787606690 C29.689439527738159 118.736297787606700 6.866439527738161 118.907297787606690 3.804439527738158 115.004297787606700 z" />
<glyph unicode="l" horiz-adv-x="36.483741241829193" d="M9.959714735838308 116.837296207565860 C12.115714735838306 119.007296207565870 30.795714735838310 118.169296207565860 32.779714735838304 116.504296207565860 C34.763714735838306 114.839296207565870 35.921714735838307 2.652296207564937 31.621714735838303 1.320296207564944 C27.321714735838299 -0.011703792435043 5.989714735838298 -0.177703792435011 2.351714735838304 1.819296207564968 C-1.286285264161695 3.816296207564953 7.974714735838308 114.840296207565870 9.959714735838308 116.837296207565860 z" />
<glyph unicode="m" horiz-adv-x="116.48954547339042" d="M73.765342495727310 44.023850589990673 C76.907342495727292 30.041850589990673 73.941342495727298 1.390850589991437 71.144342495727301 0.543850589991457 C67.967342495727308 -0.417149410008548 50.029342495727313 -0.220149410008560 49.412342495727309 0.762850589991437 C48.795342495727304 1.744850589991437 60.011342495727320 53.969850589990784 39.913342495727306 47.310850589990793 C25.975342495727304 42.692850589990798 32.590342495727306 0.413850589991469 31.267342495727306 0.247850589991472 C27.920342495727304 -0.173149410008520 5.501342495727306 -0.380149410008556 2.982342495727306 0.926850589991439 C1.150342495727305 1.877850589991432 1.543342495727302 21.486850589990432 1.914342495727304 36.201850589990435 C2.313342495727355 52.023850589990445 3.249342495727305 68.348850589990874 4.058342495727302 69.111850589990880 C5.619342495727302 70.585850589990883 26.683342495727302 70.594850589990884 28.383342495727298 68.974850589990879 C29.731342495727297 67.689850589990883 29.944342495727298 65.829850589990897 30.201342495727296 60.367850589990894 C38.874342495727305 73.149850589990891 56.403342495727294 75.316850589990892 66.608342495727300 60.974850589990893 C76.412342495727302 78.313850589990892 100.484342495727280 74.030850589990891 109.109342495727280 58.144850589990895 C121.274342495727270 35.738850589990918 111.725342495727290 1.781850589991443 108.187342495727280 0.711850589991450 C105.010342495727270 -0.249149410008556 87.072342495727284 0.280850589991417 86.455342495727280 0.930850589991429 C85.838342495727275 1.580850589991435 100.124342495727280 48.898850589990822 80.712342495727285 47.853850589990820 C77.445342495727303 47.676850589990799 75.584342495727313 46.354850589990676 73.765342495727310 44.023850589990673 z" />
<glyph unicode="n" horiz-adv-x="76.636125352975569" d="M2.742082318744391 0.362218633550839 C0.910082318744390 1.313218633550832 1.100082318744391 21.682218633549830 1.471082318744390 36.396218633549829 C1.870082318744441 52.218218633549839 2.806082318744391 69.708218633550246 3.615082318744392 70.472218633550241 C5.176082318744392 71.946218633550245 27.728082318744391 71.206218633550250 29.428082318744394 69.586218633550246 C30.776082318744393 68.301218633550249 31.559082318744395 66.576218633550255 31.485082318744396 61.447218633550264 C40.580082318744410 74.597218633550256 59.912082318744396 75.202218633550274 69.474082318744408 57.590218633550265 C81.639082318744400 35.184218633550287 72.090082318744408 1.227218633550820 68.552082318744411 0.157218633550826 C65.375082318744404 -0.803781366449186 47.767082318744414 -0.606781366449184 46.820082318744412 0.376218633550820 C45.872082318744411 1.358218633550820 60.383082318744407 47.534218633550125 40.959082318744407 46.757218633550174 C25.367082318744409 46.133218633550158 31.817082318744404 2.856218633550768 30.494082318744411 1.025218633550779 C29.733082318744394 -0.025781366449209 5.260082318744392 -0.944781366449149 2.742082318744391 0.362218633550839 z" />
<glyph unicode="o" horiz-adv-x="73.545141719987214" d="M34.365429628298841 72.475218633550327 C50.447429628298842 72.207218633550241 70.297429628298858 56.126218633549797 71.804429628298848 33.764218633549802 C73.145429628298842 13.873218633549797 62.256429628298839 1.101218633550957 38.803429628298844 0.414218633550917 C16.261429628298842 -0.245781366449151 2.548429628298834 9.586218633549741 1.453429628298840 29.492218633549747 C-0.054570371701148 56.880218633549759 20.779429628298843 72.702218633550160 34.365429628298841 72.475218633550327 zM48.103429628298855 39.814091039414535 C46.658429628298855 44.578091039414531 41.144429628298852 51.744091039414847 33.191429628298856 49.424091039414854 C27.325429628298856 47.713091039414849 23.403429628298852 38.941091039414331 24.906429628298852 34.180091039414336 C26.894429628298855 27.884091039414329 33.853429628298855 25.895091039414282 40.481429628298855 27.552091039414279 C44.512429628298847 28.560091039414274 50.147429628298852 33.075091039414531 48.103429628298855 39.814091039414535 z" />
<glyph unicode="p" horiz-adv-x="83.329878433594558" d="M6.033939216797165 -43.135034608378874 C3.056939216797165 -41.138034608378860 3.311939216797159 -8.092034608378867 4.257939216797166 22.999965391621132 C4.966939216797178 46.323965391621130 1.910939216797164 64.751965391621127 3.197939216797167 70.582965391621130 C3.966939216797165 74.067965391621129 28.011939216797167 73.618965391621131 29.902939216797165 72.190965391621120 C31.794939216797168 70.762965391621123 30.892939216797167 70.907965391621133 30.656939216797163 65.909965391621128 C54.777939216797165 83.246965391621131 82.170939216797166 68.011965391621132 81.224939216797168 35.882965391621127 C80.278939216797156 3.753965391621136 51.007939216797169 -7.708034608378881 33.168939216797170 5.608965391621126 C34.424939216797171 -10.220034608378882 36.540939216797170 -39.951034608378876 33.168939216797170 -41.627034608378864 C26.078939216797167 -45.152034608378870 10.846939216797166 -46.365034608378863 6.033939216797165 -43.135034608378874 zM44.475939216797165 26.462965391621125 C49.249939216797166 25.206965391621125 54.071939216797162 29.554965391621124 55.028939216797170 33.748965391621127 C55.985939216797163 37.943965391621134 53.802939216797171 44.966965391621116 48.747939216797171 45.808965391621129 C42.717939216797170 46.813965391621124 37.618939216797173 41.765965391621123 36.938939216797174 37.517965391621132 C35.932939216797166 31.236965391621126 40.949939216797162 27.390965391621123 44.475939216797165 26.462965391621125 z" />
<glyph unicode="q" horiz-adv-x="82.514061441936974" d="M44.152207183427500 -37.506488388730162 C38.530207183427507 -26.853488388730170 40.845207183427505 -15.535488388730187 43.491207183427498 4.106511611269816 C28.358207183427488 -5.413488388730201 2.747207183427488 2.230511611269819 1.801207183427501 34.360511611269828 C0.855207183427673 66.490511611269866 33.238207183427534 81.672511611269869 52.090207183427509 64.694511611269832 C53.099207183427509 68.752511611269838 54.056207183427503 69.583511611269827 55.948207183427513 71.011511611269839 C57.840207183427523 72.439511611269836 79.060207183427508 73.544511611269840 79.829207183427513 70.059511611269826 C81.116207183427520 64.228511611269823 59.925207183427517 1.973511611269828 67.965207183427509 -13.537488388730139 C71.934207183427503 -21.194488388730150 79.871207183427515 -10.541488388730130 82.517207183427502 -11.207488388730127 C85.422207183427503 -11.938488388730121 89.719207183427500 -30.752488388730114 87.809207183427503 -33.511488388730129 C80.202207183427504 -44.497488388730147 54.146207183427506 -56.443488388730145 44.152207183427500 -37.506488388730162 zM42.856207183427500 35.597511611269823 C41.899207183427500 39.792511611269830 38.245207183427503 42.527511611269816 34.693207183427504 41.707511611269823 C31.141207183427504 40.886511611269825 29.037207183427505 36.821511611269827 29.994207183427505 32.626511611269819 C30.951207183427506 28.431511611269812 34.605207183427503 25.696511611269820 38.157207183427502 26.516511611269813 C41.708207183427504 27.337511611269825 43.812207183427503 31.402511611269830 42.856207183427500 35.597511611269823 z" />
<glyph unicode="r" horiz-adv-x="77.376108793773938" d="M3.318202973056312 0.292571083995469 C1.486202973056312 1.243571083995462 1.691202973056305 22.592571083995637 2.047202973056312 37.824571083995636 C2.417202973056396 53.646571083995639 3.382202973056312 71.136571083996003 4.191202973056310 71.900571083996013 C5.752202973056310 73.374571083996017 25.368202973056309 74.463571083996015 27.068202973056312 72.843571083996011 C28.416202973056311 71.558571083996014 30.313202973056310 69.338571083996030 30.240202973056309 64.209571083996025 C56.618202973056313 87.510571083996041 79.439202973056311 60.295571083996045 75.222202973056312 56.550571083996033 C72.735202973056317 54.341571083996030 57.459202973056300 38.495571083995699 56.618202973056306 39.572571083995697 C51.161202973056312 46.563571083995697 45.952202973056316 51.806571083996005 39.713202973056312 49.519571083996013 C25.051202973056309 44.145571083996018 36.432202973056306 3.568571083995479 35.109202973056313 1.737571083995491 C34.348202973056317 0.686571083995446 5.837202973056314 -1.014428916004547 3.318202973056312 0.292571083995469 z" />
<glyph unicode="s" horiz-adv-x="70.004445304330602" d="M66.648127679274850 61.650359865245051 C64.891127679274845 66.394359865245050 46.738127679274854 73.884359865245017 32.977127679274844 73.634359865245045 C19.216127679274845 73.384359865245074 3.151127679274869 68.126359865245050 1.941127679274846 51.912359865245051 C1.301127679274844 43.329359865245053 6.300127679274848 34.748359865244460 14.498127679274848 33.001359865244467 C28.929127679274846 29.925359865244474 42.136127679274850 29.986359865244445 39.121127679274849 23.956359865244444 C36.346127679274844 18.406359865244447 14.704127679274846 27.739359865244445 11.483127679274844 29.986359865244445 C10.123127679274845 30.935359865244443 -0.107872320725154 11.964359865245136 1.063127679274846 8.219359865245131 C2.234127679274844 4.474359865245127 18.301127679274845 0.229359865245655 28.878127679274851 0.229359865245655 C54.937127679274852 0.229359865245655 65.417127679274842 5.502359865244571 68.112127679274849 16.208359865244574 C70.501127679274845 25.696359865244574 66.537127679274846 36.300359865244744 55.703127679274843 41.543359865244746 C44.647127679274845 46.894359865244752 27.999127679274839 43.774359865245032 27.999127679274839 51.412359865245037 C27.999127679274839 62.398359865245041 48.202127679274852 58.153359865244866 57.864127679274844 45.170359865244862 C59.753127679274854 42.633359865244884 68.235127679274854 57.364359865245049 66.648127679274850 61.650359865245051 z" />
<glyph unicode="t" horiz-adv-x="66.326934859017115" d="M2.084060336369038 53.892215749860469 C-1.343939663630962 56.362215749860468 0.837060336369039 72.539215749860588 4.577060336369037 74.515215749860587 C5.737060336369037 75.128215749860587 21.108060336369036 72.908215749860588 21.108060336369036 72.908215749860588 C21.108060336369036 72.908215749860588 23.138060336369037 92.796215749860480 23.665060336369038 93.214215749860472 C25.697060336369034 94.824215749860471 43.298060336369034 94.202215749860471 45.168060336369038 92.967215749860472 C45.686060336369039 92.625215749860473 46.378060336369032 82.603215749860581 46.684060336369043 73.163215749860584 C46.684060336369043 73.163215749860584 62.851060336369045 75.938215749860575 63.789060336369047 75.009215749860587 C66.282060336369042 72.539215749860588 66.594060336369054 55.621215749860468 64.101060336369045 54.139215749860469 C63.213060336369040 53.611215749860463 47.038060336369043 54.459215749860462 47.038060336369043 54.459215749860462 C47.038060336369043 54.459215749860462 46.712060336369049 1.859215749859992 44.311060336369046 1.274215749860012 C40.260060336369044 0.286215749860020 20.159060336369045 0.162215749860039 16.731060336369048 1.645215749860043 C14.716060336369047 2.516215749860052 16.934060336369043 30.311215749860487 19.458060336369044 54.229215749860487 C19.458060336369037 54.228215749860468 3.183060336369039 53.099215749860463 2.084060336369038 53.892215749860469 z" />
<glyph unicode="u" horiz-adv-x="75.095700722765059" d="M71.487305855364085 72.647324791102889 C73.366305855364089 71.672324791102881 71.990305855364085 52.798324791102729 72.241305855364089 35.712324791102731 C72.489305855364080 18.863324791102727 75.507305855364095 1.541324791102738 73.749305855364085 1.039324791102729 C71.633305855364085 0.434324791102739 50.131305855364090 0.285324791102738 47.618305855364085 1.290324791102734 C45.845305855364082 1.999324791102737 45.783305855364084 1.560324791102744 45.859305855364084 6.818324791102725 C39.326305855364083 -2.477675208897267 16.862305855364077 -4.445675208897285 7.059305855364088 13.609324791102722 C-5.411694144635906 36.579324791102714 4.904305855364087 71.391324791102875 8.005305855364089 72.488324791102869 C11.213305855364093 73.623324791102874 25.793305855364089 73.654324791102866 26.764305855364086 72.647324791102875 C27.735305855364082 71.640324791102870 17.216305855364084 25.662324791102726 36.293305855364082 24.715324791102717 C52.270305855364086 23.922324791102717 48.272305855364081 70.268324791102870 49.628305855364090 72.145324791102865 C50.407305855364086 73.222324791102878 68.905305855364091 73.987324791102878 71.487305855364085 72.647324791102889 z" />
<glyph unicode="v" horiz-adv-x="76.29282348226252" d="M0.704745217267195 70.843218633550251 C-0.277254782732804 69.751218633550252 3.849745217267201 48.303218633549690 11.236745217267195 29.537218633549699 C17.452745217267186 13.747218633549707 24.218745217267195 0.949218633550842 25.055745217267198 0.643218633550831 C26.887745217267199 -0.026781366449157 49.116745217267194 -0.697781366449178 50.683745217267202 0.643218633550831 C51.397745217267200 1.254218633550821 58.334745217267198 13.002218633549688 64.000745217267209 28.784218633549685 C71.035745217267205 48.382218633549684 76.584745217267198 69.078218633550250 75.764745217267190 70.173218633550249 C74.257745217267185 72.184218633550245 53.789745217267196 72.336218633550246 51.437745217267192 70.995218633550252 C49.085745217267188 69.654218633550258 46.975745217267189 53.671218633549714 37.869745217267194 33.558218633549728 C29.792745217267196 53.671218633549721 26.329745217267192 69.906218633550253 24.804745217267193 71.246218633550257 C23.279745217267195 72.586218633550246 2.513745217267193 72.854218633550246 0.704745217267195 70.843218633550251 z" />
<glyph unicode="w" horiz-adv-x="110.97137961056364" d="M1.779621605560973 71.206016139573279 C3.763621605560971 72.905016139573277 25.914621605560974 73.237016139573271 28.560621605560968 71.538016139573273 C31.206621605560969 69.839016139573260 30.898621605560969 53.291016139573614 36.851621605560965 34.603016139573626 C45.052621605560972 49.447016139573620 52.716621605560960 71.859016139573271 55.362621605560960 72.198016139573269 C58.008621605560961 72.538016139573273 67.779621605560962 50.144016139573608 76.047621605560963 34.854016139573616 C81.339621605560964 52.862016139573619 79.431621605560963 69.750016139573276 82.077621605560964 71.789016139573278 C84.723621605560965 73.828016139573279 107.613621605560970 72.565016139573288 109.266621605560970 70.866016139573290 C110.920621605560970 69.167016139573292 108.238621605560970 20.036016139572610 97.655621605560967 1.688016139572611 C96.338621605560974 -0.594983860427377 66.718621605560969 -1.139983860427407 65.279621605560976 1.382016139572578 C59.657621605560976 11.235016139572572 58.003621605560966 16.502016139573698 56.019621605560971 26.016016139573694 C53.373621605560970 16.842016139573701 51.223621605560965 10.047016139572598 45.270621605560969 1.552016139572608 C43.712621605560969 -0.670983860427398 13.426621605560968 -0.257983860427387 12.479621605560972 1.688016139572611 C4.211621605560980 18.677016139572601 -0.205378394439027 69.507016139573281 1.779621605560973 71.206016139573279 z" />
<glyph unicode="x" horiz-adv-x="92.899259730149311" d="M1.641786606965951 70.996463995923179 C2.468786606965949 72.494463995923169 27.798786606965947 72.134463995923170 31.436786606965953 70.303463995923167 C35.074786606965958 68.472463995923164 46.290786606965952 53.020463995923194 46.290786606965952 53.020463995923194 C46.290786606965952 53.020463995923194 58.273786606965956 69.474463995923173 61.084786606965949 70.806463995923181 C63.895786606965956 72.138463995923175 87.962786606965949 71.995463995923188 90.608786606965950 70.331463995923173 C93.254786606965951 68.667463995923171 63.323786606965953 35.543463995922728 63.323786606965953 35.543463995922728 C63.323786606965953 35.543463995922728 93.750786606965946 3.917463995923690 91.601786606965945 1.421463995923709 C89.451786606965939 -1.075536004076312 61.318786606965944 -0.296536004076302 58.824786606965944 1.711463995923680 C56.344786606965940 3.708463995923694 46.764786606965941 15.781463995922707 46.764786606965941 15.781463995922707 C46.764786606965941 15.781463995922707 37.674786606965938 2.037463995923744 34.201786606965939 0.706463995923755 C30.728786606965940 -0.625536004076238 3.627786606965939 -1.241536004076295 1.477786606965942 1.254463995923715 C-0.672213393034053 3.750463995923724 28.597786606965940 35.876463995922748 28.597786606965940 35.876463995922748 C28.597786606965940 35.876463995922748 0.814786606965953 69.498463995923174 1.641786606965951 70.996463995923179 z" />
<glyph unicode="y" horiz-adv-x="87.434299323300365" d="M0.778656910029767 72.627092985756519 C-0.604343089970232 70.380092985756519 30.610656910029768 7.961092985756537 32.783656910029769 0.970092985756523 C29.227656910029772 -13.760907014243472 9.462656910029770 -12.428907014243478 7.487656910029770 -16.673907014243483 C5.151656910029772 -21.692907014243488 14.765656910029769 -44.499907014243476 17.409656910029767 -44.304907014243483 C30.969656910029769 -43.305907014243488 46.020656910029771 -32.985907014243480 59.454656910029769 0.969092985756518 C72.926656910029777 35.019092985756515 87.412656910029767 71.873092985756514 86.520656910029771 72.876092985756515 C84.742656910029766 74.873092985756514 60.639656910029771 74.124092985756505 58.071656910029773 72.127092985756519 C55.503656910029775 70.130092985756505 44.529656910029772 35.924092985756502 44.529656910029772 35.924092985756502 C44.529656910029772 35.924092985756502 30.214656910029767 71.129092985756529 28.831656910029771 72.128092985756524 C27.448656910029769 73.126092985756529 2.161656910029771 74.874092985756533 0.778656910029767 72.627092985756519 z" />
<glyph unicode="z" horiz-adv-x="81.043310623125763" d="M3.481101726067925 71.179574985728891 C4.526101726067926 72.178574985728901 80.599101726067914 73.176574985728905 80.390101726067925 70.929574985728905 C80.181101726067936 68.682574985728891 47.369101726067932 27.236574985729291 47.369101726067932 27.236574985729291 C47.369101726067932 27.236574985729291 73.911101726067926 33.228574985729296 75.165101726067917 31.480574985729291 C76.419101726067922 29.732574985729286 79.554101726067913 3.017574985728295 78.091101726067919 2.018574985728300 C76.628101726067925 1.019574985728305 4.108101726067918 -1.726425014271726 2.227101726067920 1.768574985728286 C0.346101726067920 5.263574985728290 36.053101726067922 48.125574985728775 36.053101726067922 48.125574985728775 C36.053101726067922 48.125574985728775 5.900101726067929 43.365574985728855 4.646101726067927 45.612574985728855 C3.393101726067927 47.860574985728860 2.436101726067927 70.180574985728896 3.481101726067925 71.179574985728891 z" />
<glyph unicode="" horiz-adv-x="81.885730342772149" d="M61.910177720042654 38.177406079702230 C63.012177720042658 35.179406079702225 47.638177720042648 31.996406079702233 46.964177720042656 33.774406079702224 C44.224177720042654 41.002406079702219 35.026177720042654 38.796406079702230 35.026177720042654 31.967406079702222 C35.026177720042654 24.739406079702228 44.029177720042654 23.736406079702228 46.636177720042653 29.231406079702218 C47.478177720042652 31.006406079702224 62.425177720042655 25.542406079702225 61.582177720042651 23.640406079702224 C51.605177720042647 1.137406079702224 20.835177720042637 8.051406079702218 19.233177720042654 29.546406079702230 C17.427177720042735 53.773406079702241 52.065177720042655 64.954406079702238 61.910177720042654 38.177406079702230 zM80.030177720042659 32.172406079702235 C80.030177720042659 10.079406079702231 62.548177720042659 -7.830593920297716 40.983177720042661 -7.830593920297716 C19.418177720042664 -7.830593920297716 1.936177720042661 10.079406079702231 1.936177720042664 32.172406079702235 C1.936177720042675 54.265406079702238 19.418177720042664 72.175406079702242 40.983177720042661 72.175406079702242 C62.548177720042659 72.175406079702242 80.030177720042659 54.265406079702238 80.030177720042659 32.172406079702235 zM40.982177720042650 63.055406079702237 C24.110177720042650 63.055406079702237 10.432177720042734 49.043406079702230 10.432177720042649 31.757406079702228 C10.432177720042645 14.471406079702227 24.110177720042650 0.459406079702276 40.982177720042650 0.459406079702276 C57.854177720042657 0.459406079702276 71.532177720042654 14.471406079702227 71.532177720042654 31.757406079702228 C71.532177720042654 49.043406079702230 57.855177720042647 63.055406079702237 40.982177720042650 63.055406079702237 z" />
<glyph unicode="" horiz-adv-x="80.561927926184921" d="M43.604540853037612 39.846500389252057 C43.528540853037612 44.942500389252061 37.253540853037613 45.334500389252057 36.461540853037611 45.176500389252055 C36.271540853037614 43.942500389252061 36.957540853037614 39.917500389252055 37.084540853037609 34.979500389252053 C38.097540853037607 34.726500389252053 43.668540853037612 35.612500389252062 43.604540853037612 39.846500389252057 zM48.390540853037606 29.219500389252062 C55.716540853037600 23.047500389252065 58.633540853037601 11.874500389252063 57.715540853037609 11.115500389252063 C56.797540853037603 10.355500389252057 46.440540853037604 9.659500389252059 44.211540853037611 10.925500389252065 C43.239540853037610 11.477500389252071 43.566540853037601 19.096500389252071 38.388540853037611 25.046500389252060 C38.388540853037611 25.046500389252060 39.754540853037611 12.064500389252061 38.312540853037611 11.051500389252055 C36.575540853037609 9.831500389252057 26.592540853037612 9.981500389252062 25.368540853037608 10.799500389252060 C24.144540853037604 11.617500389252058 24.803540853037610 51.993500389252034 25.744540853037606 52.901500389252021 C26.685540853037601 53.809500389252008 28.756540853037606 54.083500389252016 38.921540853037605 53.901500389252021 C49.086540853037604 53.719500389252026 55.439540853037613 49.205500389252052 55.927540853037613 39.697500389252042 C56.207540853037614 34.251500389252058 52.913540853037617 30.881500389252054 48.390540853037606 29.219500389252062 zM40.284540853037612 70.662593375008584 C18.825540853037616 70.662593375008584 1.430540853037623 52.840593375008595 1.430540853037613 30.857593375008591 C1.430540853037609 8.874593375008587 18.826540853037613 -8.947406624991530 40.284540853037612 -8.947406624991530 C61.742540853037617 -8.947406624991530 79.138540853037597 8.874593375008587 79.138540853037597 30.857593375008591 C79.138540853037597 52.840593375008595 61.743540853037608 70.662593375008584 40.284540853037612 70.662593375008584 zM70.696540853037604 31.482500389252053 C70.696540853037604 14.282500389252050 57.086540853037604 0.339500389252024 40.297540853037603 0.339500389252024 C23.508540853037601 0.339500389252024 9.898540853037599 14.282500389252036 9.898540853037602 31.482500389252039 C9.898540853037687 48.682500389252041 23.508540853037601 62.625500389252025 40.297540853037603 62.625500389252025 C57.086540853037604 62.625500389252025 70.696540853037604 48.682500389252056 70.696540853037604 31.482500389252053 z" />
<glyph unicode="" horiz-adv-x="94.712626046258777" d="M1.716000000000008 1.693092985756550 C0.494000000000028 4.112092985756590 32.927000000000021 114.930092985757370 34.349000000000046 116.532092985757340 C35.770999999999958 118.133092985757340 59.267000000000053 117.796092985757350 60.972999999999956 116.881092985757330 C62.678999999999974 115.966092985757370 94.000000000000000 3.856092985756561 93.146999999999935 2.026092985756577 C92.293999999999983 0.196092985756593 64.551000000000045 0.680092985756573 63.270999999999958 2.052092985756588 C61.990999999999985 3.425092985756578 55.167000000000030 35.909092985757297 55.024999999999977 36.137092985757306 C53.888000000000034 36.595092985757276 39.812999999999988 37.281092985757311 38.390999999999963 35.679092985757279 C38.390999999999963 35.679092985757279 31.850999999999999 3.652092985756610 30.572000000000003 2.051092985756611 C29.293000000000006 0.450092985756612 2.938999999999965 -0.725907014243489 1.716000000000008 1.693092985756550 zM53.200000000000003 47.575092985756584 C52.346999999999980 52.379092985756586 48.934999999999938 68.164092985756497 47.229000000000042 80.974092985756556 C45.096000000000004 68.163092985756521 41.399999999999977 50.777092985756610 40.688999999999965 46.889092985756633 C41.967999999999961 46.431092985756607 51.919999999999959 46.889092985756577 53.200000000000045 47.575092985756612 L53.200000000000003 47.575092985756584 zM52.229000000000006 169.182092985756550 C49.534000000000006 163.571092985756540 43.329000000000008 144.702092985756560 38.600000000000001 129.274092985756540 C51.533000000000008 142.574092985756520 52.307000000000031 143.307092985756530 66.783000000000015 158.699092985756520 C76.658000000000015 169.199092985756520 81.033000000000015 174.824092985756580 70.209000000000032 175.159092985756530 C54.892000000000024 175.633092985756550 54.157000000000004 173.199092985756550 52.229000000000006 169.182092985756550 z" />
<glyph unicode="" horiz-adv-x="77" d="M3.768313884551041 115.829222526070620 C1.202313884551014 112.524222526070620 2.164313884551007 1.462222526070605 4.089313884551075 0.470222526070586 C6.014313884551029 -0.521777473929433 71.775313884550997 -1.512777473929418 74.021313884551091 0.801222526070603 C76.267313884551072 3.115222526070568 72.096313884551023 34.186222526070594 69.851313884551018 36.169222526070598 C67.605313884551038 38.152222526070602 40.018313884551048 29.889222526070625 37.131313884550991 29.889222526070625 C36.169313884551002 33.194222526070575 34.565313884551074 55.010222526070606 34.565313884551074 55.010222526070606 C34.565313884551074 55.010222526070606 49.321313884551046 53.027222526070602 50.925313884551088 55.341222526070624 C52.529313884551016 57.655222526070588 51.567313884551027 70.876222526070592 50.283313884551035 72.529222526070612 C49.000313884551019 74.182222526070575 33.281313884551082 72.529222526070612 33.281313884551082 72.529222526070612 C33.281313884551082 72.529222526070612 31.998313884551067 86.412222526070593 31.677313884551040 91.370222526070620 C36.489313884551052 90.378222526070601 66.643313884551048 84.098222526070572 68.568313884551003 85.090222526070590 C70.493313884551071 86.082222526070609 72.417313884551049 114.839222526070610 70.814313884550984 116.491222526070600 C69.211313884551032 118.143222526070590 6.334313884551079 119.135222526070610 3.768313884551048 115.829222526070620 L3.768313884551041 115.829222526070620 zM34.395999999999987 169.082092985756560 C31.700999999999983 163.471092985756540 25.496000000000038 144.602092985756570 20.767000000000024 129.174092985756540 C33.700000000000031 142.474092985756530 34.474000000000053 143.537948004343920 48.950000000000045 158.929948004343910 C58.825000000000045 169.429948004343910 63.200000000000003 174.724092985756580 52.376000000000005 175.059092985756540 C37.059000000000005 175.533092985756550 36.323999999999984 173.099092985756560 34.395999999999987 169.082092985756560 z" />
<glyph unicode="" horiz-adv-x="69" d="M6.784689487431056 115.269717521072720 C9.208689487431002 117.602717521072690 59.805689487431096 119.602717521072690 61.926689487431076 116.269717521072720 C64.047689487431057 112.936717521072690 64.653689487431052 92.602717521072634 62.835689487431068 91.269717521072607 C61.017689487431085 89.935717521072604 46.171689487431081 91.602717521072634 46.171689487431081 91.602717521072634 C46.171689487431081 91.602717521072634 45.987689487431112 73.256717521072574 46.474689487431078 59.602717521072577 C47.080689487431073 42.602717521072577 49.201689487431054 29.602717521072691 49.201689487431054 29.602717521072691 C49.201689487431054 29.602717521072691 63.744689487431060 32.269717521072721 65.865689487431041 29.935717521072718 C67.986689487431022 27.602717521072691 68.289689487431019 3.268717521071778 66.168689487431038 0.935717521071751 C64.047689487431057 -1.397282478928219 5.270689487431014 -1.064282478928249 3.149689487431033 0.935717521071751 C1.028689487431052 2.935717521071751 1.028689487431052 27.602717521072691 3.754689487431051 29.269717521072721 C6.481689487431027 30.936717521072694 18.600689487431055 28.269717521072721 18.600689487431055 28.269717521072721 C18.600689487431055 28.269717521072721 20.441689487431063 42.947717521072548 21.024689487431033 60.602717521072520 C21.630689487431027 78.935717521072547 21.327689487431030 90.269717521072607 21.327689487431030 90.269717521072607 C21.327689487431030 90.269717521072607 7.164689487431019 87.309717521072628 4.966689487431040 90.936717521072637 C3.149689487431033 93.935717521072604 4.360689487431046 112.935717521072720 6.784689487431024 115.269717521072720 L6.784689487431056 115.269717521072720 zM33.028999999999996 169.082092985756560 C30.333999999999996 163.471092985756540 24.129000000000016 144.602092985756570 19.399999999999999 129.174092985756540 C32.333000000000006 142.474092985756530 33.107000000000006 143.207092985756530 47.582999999999998 158.599092985756530 C57.457999999999998 169.099092985756530 61.832999999999998 174.724092985756580 51.009000000000000 175.059092985756540 C35.692000000000000 175.533092985756550 34.956999999999994 173.099092985756560 33.028999999999996 169.082092985756560 z" />
<glyph unicode="" horiz-adv-x="95" d="M92.460256989262120 51.185043419461806 C88.960256989262120 14.084043419461807 67.460256989262120 -2.405956580539169 38.214256989262140 0.569043419460854 C18.792256989262114 2.545043419460853 1.168256989262094 20.925043419461758 2.073256989262177 55.471043419461751 C2.870256989262099 85.932043419461763 30.146256989262156 117.505043419461980 52.697256989262087 118.143043419461830 C82.419256989262180 118.984043419461770 95.164256989262071 79.854043419461789 92.460256989262120 51.185043419461806 zM32.364256989262117 55.413043419461701 C32.364256989262117 35.832043419461684 49.538256989262095 30.994043419461832 59.864256989262117 42.015043419461790 C73.864256989262117 56.959043419461807 61.862256989262164 84.836043419461660 50.864256989262117 84.269043419461639 C40.864256989262117 83.754043419461652 32.364256989262124 66.749043419461714 32.364256989262117 55.413043419461701 zM55.996000000000002 169.023092985756530 C53.301000000000002 163.412092985756520 47.096000000000004 144.543092985756540 42.367000000000004 129.115092985756520 C55.300000000000011 142.415092985756500 56.074000000000005 143.148092985756510 70.549999999999997 158.540092985756500 C80.424999999999997 169.040092985756500 84.799999999999997 174.665092985756560 73.975999999999999 175.000092985756510 C58.658999999999992 175.474092985756530 57.923999999999999 173.040092985756530 55.996000000000002 169.023092985756530 z" />
<glyph unicode="" horiz-adv-x="95" d="M92.460256989262120 51.185043419461806 C88.960256989262120 14.084043419461807 67.460256989262120 -2.405956580539169 38.214256989262140 0.569043419460854 C18.792256989262114 2.545043419460853 1.168256989262094 20.925043419461758 2.073256989262177 55.471043419461751 C2.870256989262099 85.932043419461763 30.146256989262156 117.505043419461980 52.697256989262087 118.143043419461830 C82.419256989262180 118.984043419461770 95.164256989262071 79.854043419461789 92.460256989262120 51.185043419461806 zM32.364256989262117 55.413043419461701 C32.364256989262117 35.832043419461684 49.538256989262095 30.994043419461832 59.864256989262117 42.015043419461790 C73.864256989262117 56.959043419461807 61.862256989262164 84.836043419461660 50.864256989262117 84.269043419461639 C40.864256989262117 83.754043419461652 32.364256989262124 66.749043419461714 32.364256989262117 55.413043419461701 zM46.737000000000002 147.134092985756610 C49.100000000000001 139.592092985756610 43.299999999999990 131.149092985756510 36.082999999999991 129.405092985756540 C29.745999999999992 127.874092985756530 20.247999999999990 131.241092985756610 18.974999999999991 139.042092985756600 C17.658000000000008 147.113092985756570 22.102999999999987 155.474092985756610 29.187999999999985 157.694092985756640 C36.273999999999987 159.913092985756630 44.374000000000002 154.676092985756610 46.737000000000002 147.134092985756610 zM70.760118959108041 157.599817892819710 C63.675118959108040 155.379817892819740 59.230118959107998 147.018817892819700 60.547118959107991 138.947817892819700 C61.820118959107994 131.146817892819710 71.318118959108006 127.779817892819640 77.655118959108009 129.310817892819640 C84.872118959108008 131.054817892819640 90.672118959108005 139.497817892819740 88.309118959108005 147.039817892819710 C85.946118959108006 154.581817892819740 77.845118959108049 159.819817892819740 70.760118959108041 157.599817892819710 z" />
<glyph unicode="" horiz-adv-x="99" d="M9.669081853484542 116.098790631358440 C-3.276918146515534 71.765790631358385 -4.166918146515513 0.265790631359366 49.945081853484567 0.015790631357390 C104.057081853484530 -0.234209368644557 103.057081853484530 73.432790631358444 89.420081853484589 116.432790631358440 C88.751081853484493 118.541790631358420 63.452081853484515 118.518790631358460 63.724081853484563 116.099790631358420 C66.603081853484582 90.432790631358444 75.779081853484513 39.432790631358294 50.418081853484523 39.099790631358417 C25.057081853484533 38.766790631358532 33.620081853484507 91.099790631358402 36.057081853484533 116.432790631358440 C36.288081853484528 118.835790631358410 10.530081853484489 119.045790631358440 9.669081853484499 116.098790631358440 L9.669081853484542 116.098790631358440 zM52.328999999999979 169.223092985756470 C49.633999999999972 163.612092985756480 43.429000000000016 144.743092985756050 38.700000000000003 129.315092985756020 C51.633000000000010 142.615092985756010 52.406999999999961 143.348092985756320 66.882999999999953 158.740092985756320 C76.757999999999953 169.240092985756320 81.132999999999953 174.865092985756580 70.308999999999955 175.200092985756530 C54.991999999999948 175.674092985756540 54.256999999999977 173.240092985756460 52.328999999999979 169.223092985756470 z" />
<glyph unicode="" horiz-adv-x="99" d="M9.305304787042076 115.881125000000000 C-3.640695212958001 71.548124999999942 -4.530695212957980 0.048125000000923 49.581304787042100 -0.201875000001053 C103.693304787042070 -0.451875000003000 102.693304787042050 73.215125000000000 89.056304787042123 116.215125000000000 C88.387304787042027 118.324124999999980 63.088304787042048 118.301125000000010 63.360304787042097 115.882124999999970 C66.239304787042116 90.215125000000000 75.415304787042047 39.215124999999851 50.054304787042057 38.882124999999974 C24.693304787042067 38.549125000000089 33.256304787042033 90.882124999999959 35.693304787042067 116.215125000000000 C35.924304787042061 118.618124999999960 10.166304787042023 118.828125000000000 9.305304787042033 115.881125000000000 L9.305304787042033 115.881125000000000 L9.305304787042076 115.881125000000000 zM43.078999999999994 147.495092985756540 C45.441999999999993 139.953092985756540 39.641999999999996 131.510092985756530 32.424999999999997 129.766092985756530 C26.088000000000001 128.235092985756520 16.589999999999996 131.602092985756540 15.317000000000000 139.403092985756560 C14.000000000000018 147.474092985756530 18.445000000000000 155.835092985756550 25.529999999999998 158.055092985756540 C32.616000000000000 160.274092985756540 40.715999999999994 155.037092985756540 43.078999999999994 147.495092985756540 zM67.088000000000008 157.894092985756520 C60.003000000000014 155.674092985756540 55.558000000000007 147.313092985756550 56.875000000000007 139.242092985756530 C58.148000000000010 131.441092985756540 67.646000000000001 128.074092985756520 73.983000000000004 129.605092985756530 C81.200000000000003 131.349092985756560 87.000000000000000 139.792092985756540 84.637000000000000 147.334092985756510 C82.274000000000001 154.876092985756540 74.173000000000016 160.114092985756540 67.088000000000008 157.894092985756520 z" />
<glyph unicode="" horiz-adv-x="78" d="M49.047120976769207 10.264402652945137 C32.393120976769190 -11.824597347054919 -3.883879023230740 4.561402652944949 2.649120976769154 42.996402652944994 C7.807120976769173 73.342402652944997 37.322120976769156 78.009402652945198 51.649120976769268 65.567402652945191 C51.909120976769259 68.586402652945196 52.236120976769257 71.003402652945169 52.690120976769208 71.386402652945151 C53.991120976769253 72.484402652945164 74.490120976769163 71.844402652945178 75.792120976769183 69.923402652945185 C76.362120976769233 69.082402652945177 75.011120976769234 57.243402652944951 75.011120976769234 41.051402652944944 C75.011120976769234 16.624402652944923 77.473120976769223 1.843402652945656 76.303120976769264 1.072402652945698 C74.221120976769157 -0.299597347054316 50.739120976769186 0.467402652945680 49.819120976769227 1.437402652945650 C48.518120976769183 2.809402652945664 48.787120976769188 5.873402652945117 49.047120976769179 10.264402652945137 L49.047120976769207 10.264402652945137 zM39.530120976769211 48.780402652945156 C33.554120976769241 49.835402652945163 28.625120976769171 44.564402652944864 27.775120976769244 38.778402652944862 C26.770120976769249 31.933402652944892 33.161120976769212 25.557402652944681 39.082120976769261 26.478402652944681 C45.013120976769187 27.400402652944706 49.407120976769193 31.970402652944870 49.573120976769246 37.821402652944869 C49.739120976769186 43.672402652944868 45.166120976769207 47.786402652945185 39.530120976769240 48.780402652945156 L39.530120976769211 48.780402652945156 zM35.028999999999996 120.082092985756550 C32.333999999999989 114.471092985756530 26.129000000000012 95.602092985756542 21.399999999999999 80.174092985756531 C34.333000000000013 93.474092985756499 35.106999999999999 94.207092985756518 49.582999999999998 109.599092985756510 C59.457999999999998 120.099092985756510 63.832999999999998 125.724092985756530 53.009000000000000 126.059092985756520 C37.691999999999993 126.533092985756540 36.956999999999994 124.099092985756540 35.028999999999996 120.082092985756550 zM28.000000000000000 64.500000000000000 C28.000000000000000 64.500000000000000 28.000000000000000 64.500000000000000 28.000000000000000 64.500000000000000 C28.000000000000000 64.500000000000000 28.000000000000000 64.500000000000000 28.000000000000000 64.500000000000000 z" />
<glyph unicode="" horiz-adv-x="79" d="M74.643052076855426 22.491744430053842 C72.772052076855402 12.049744430053863 58.038052076855479 1.462744430052631 44.965052076855386 0.569744430052708 C20.053052076855465 -1.131255569947257 5.640052076855444 10.144744430053834 2.240052076855477 29.844744430053879 C-1.159947923144614 49.544744430053868 12.479052076855396 68.244744430053458 32.651052076855422 71.909744430053422 C71.186052076855390 78.909744430053436 82.045052076855427 38.252744430053838 75.396052076855426 33.516744430053791 C69.862052076855434 29.575744430053817 43.706052076855372 25.107744430053849 28.366052076855453 29.982744430053856 C28.471052076855472 24.288744430053839 30.512052076855412 18.382744430053833 36.379052076855373 17.355744430053846 C42.420052076855427 16.298744430053830 45.427052076855375 20.931744430053868 47.501052076855444 21.283744430053844 C60.491052076855453 23.489744430053861 75.005052076855463 24.512744430053829 74.643052076855383 22.491744430053870 L74.643052076855426 22.491744430053842 zM30.215052076855429 41.773744430053540 C35.645052076855450 38.813744430053532 45.676052076855399 39.239744430053577 47.414052076855455 41.132744430053549 C51.119052076855382 45.168744430053550 48.257052076855416 52.746744430053326 42.007052076855416 52.956744430053334 C38.123052076855402 53.087744430053363 32.052052076855382 49.130744430053539 30.215052076855386 41.773744430053569 L30.215052076855429 41.773744430053540 zM38.429000000000016 119.723092985756540 C35.734000000000016 114.112092985756520 29.529000000000014 95.243092985756533 24.800000000000001 79.815092985756522 C37.733000000000018 93.115092985756490 38.506999999999998 93.848092985756480 52.982999999999990 109.240092985756480 C62.857999999999990 119.740092985756480 67.233000000000033 125.365092985756520 56.409000000000034 125.700092985756510 C41.092000000000027 126.174092985756530 40.357000000000014 123.740092985756530 38.429000000000016 119.723092985756540 z" />
<glyph unicode="" horiz-adv-x="36" d="M7.356057526383953 72.448758069997609 C9.512057526383956 74.618758069997625 28.192057526383905 73.780758069997603 30.176057526383943 72.115758069997582 C32.160057526383980 70.450758069997619 36.129057526383917 2.872758069997872 31.830057526383939 1.540758069997821 C27.530057526383985 0.208758069997828 7.025057526383989 0.208758069997828 3.387057526383956 2.206758069997818 C-0.249942473615988 4.204758069997865 5.372057526383969 70.451758069997595 7.356057526384007 72.448758069997609 L7.356057526383953 72.448758069997609 zM17.429000000000020 119.723092985756540 C14.734000000000016 114.112092985756520 8.529000000000004 95.243092985756547 3.800000000000001 79.815092985756522 C16.733000000000015 93.115092985756490 17.506999999999998 93.848092985756480 31.982999999999993 109.240092985756480 C41.857999999999990 119.740092985756480 46.233000000000033 125.365092985756520 35.409000000000034 125.700092985756510 C20.092000000000034 126.174092985756530 19.357000000000017 123.740092985756530 17.429000000000020 119.723092985756540 z" />
<glyph unicode="" horiz-adv-x="74" d="M34.365429628298841 72.475218633550327 C50.447429628298892 72.207218633550241 70.297429628298801 56.126218633549797 71.804429628298863 33.764218633549774 C73.145429628298871 13.873218633549811 62.256429628298861 1.101218633550985 38.803429628298886 0.414218633550945 C16.261429628298856 -0.245781366449123 2.548429628298766 9.586218633549720 1.453429628298864 29.492218633549726 C-0.054570371701157 56.880218633549759 20.779429628298885 72.702218633550132 34.365429628298784 72.475218633550298 L34.365429628298841 72.475218633550327 zM48.103429628298855 39.814091039414535 C46.658429628298904 44.578091039414517 41.144429628298894 51.744091039414855 33.191429628298806 49.424091039414861 C27.325429628298821 47.713091039414849 23.403429628298795 38.941091039414346 24.906429628298838 34.180091039414322 C26.894429628298898 27.884091039414329 33.853429628298841 25.895091039414297 40.481429628298883 27.552091039414279 C44.512429628298833 28.560091039414260 50.147429628298823 33.075091039414531 48.103429628298841 39.814091039414507 L48.103429628298855 39.814091039414535 zM36.429000000000016 119.723092985756540 C33.734000000000016 114.112092985756520 27.529000000000014 95.243092985756533 22.800000000000001 79.815092985756522 C35.733000000000018 93.115092985756490 36.506999999999998 93.848092985756480 50.982999999999990 109.240092985756480 C60.857999999999990 119.740092985756480 65.233000000000033 125.365092985756520 54.409000000000034 125.700092985756510 C39.092000000000034 126.174092985756530 38.357000000000014 123.740092985756530 36.429000000000016 119.723092985756540 z" />
<glyph unicode="" horiz-adv-x="73" d="M34.365429628298841 72.475218633550327 C50.447429628298892 72.207218633550241 70.297429628298801 56.126218633549797 71.804429628298863 33.764218633549774 C73.145429628298871 13.873218633549811 62.256429628298861 1.101218633550985 38.803429628298886 0.414218633550945 C16.261429628298856 -0.245781366449123 2.548429628298766 9.586218633549720 1.453429628298864 29.492218633549726 C-0.054570371701157 56.880218633549759 20.779429628298885 72.702218633550132 34.365429628298784 72.475218633550298 L34.365429628298898 72.475218633550298 L34.365429628298841 72.475218633550327 zM48.103429628298855 39.814091039414535 C46.658429628298904 44.578091039414517 41.144429628298894 51.744091039414855 33.191429628298806 49.424091039414861 C27.325429628298821 47.713091039414849 23.403429628298795 38.941091039414346 24.906429628298838 34.180091039414322 C26.894429628298898 27.884091039414329 33.853429628298841 25.895091039414297 40.481429628298883 27.552091039414279 C44.512429628298833 28.560091039414260 50.147429628298823 33.075091039414531 48.103429628298841 39.814091039414507 L48.103429628298841 39.814091039414507 L48.103429628298855 39.814091039414535 zM30.237000000000002 98.134092985756496 C32.600000000000001 90.592092985756494 26.800000000000001 82.149092985756525 19.583000000000002 80.405092985756539 C13.246000000000002 78.874092985756533 3.747999999999991 82.241092985756495 2.474999999999994 90.042092985756511 C1.157999999999994 98.113092985756481 5.603000000000005 106.474092985756470 12.688000000000002 108.694092985756470 C19.774000000000001 110.913092985756460 27.874000000000002 105.676092985756500 30.237000000000002 98.134092985756496 zM54.230000000000018 108.554092985756510 C47.145000000000024 106.334092985756540 42.700000000000003 97.973092985756566 44.017000000000003 89.902092985756568 C45.290000000000006 82.101092985756580 54.787999999999997 78.734092985756590 61.125000000000000 80.265092985756581 C68.341999999999999 82.009092985756581 74.141999999999996 90.452092985756565 71.778999999999996 97.994092985756538 C69.415999999999997 105.536092985756570 61.315000000000026 110.774092985756540 54.230000000000018 108.554092985756510 z" />
<glyph unicode="" horiz-adv-x="76" d="M71.487305855364085 72.647324791102903 C73.366305855364089 71.672324791102881 71.990305855364113 52.798324791102758 72.241305855364089 35.712324791102731 C72.489305855364137 18.863324791102741 75.507305855364052 1.541324791102738 73.749305855364128 1.039324791102729 C71.633305855364029 0.434324791102767 50.131305855364076 0.285324791102767 47.618305855364042 1.290324791102762 C45.845305855364131 1.999324791102708 45.783305855364119 1.560324791102744 45.859305855364141 6.818324791102725 C39.326305855364126 -2.477675208897267 16.862305855364063 -4.445675208897285 7.059305855364073 13.609324791102722 C-5.411694144635909 36.579324791102692 4.904305855364100 71.391324791102875 8.005305855364099 72.488324791102855 C11.213305855364069 73.623324791102846 25.793305855364110 73.654324791102852 26.764305855364114 72.647324791102847 C27.735305855364118 71.640324791102898 17.216305855364112 25.662324791102726 36.293305855364110 24.715324791102717 C52.270305855364086 23.922324791102724 48.272305855364039 70.268324791102884 49.628305855364147 72.145324791102894 C50.407305855364143 73.222324791102892 68.905305855364077 73.987324791102878 71.487305855364070 72.647324791102903 L71.487305855364085 72.647324791102903 zM42.429000000000016 119.723092985756540 C39.734000000000016 114.112092985756520 33.529000000000011 95.243092985756533 28.800000000000001 79.815092985756522 C41.733000000000018 93.115092985756490 42.506999999999998 93.848092985756480 56.982999999999990 109.240092985756480 C66.857999999999990 119.740092985756480 71.233000000000033 125.365092985756520 60.409000000000034 125.700092985756510 C45.092000000000027 126.174092985756530 44.357000000000014 123.740092985756530 42.429000000000016 119.723092985756540 z" />
<glyph unicode="" horiz-adv-x="75" d="M71.487305855364085 72.647324791102903 C73.366305855364089 71.672324791102881 71.990305855364113 52.798324791102758 72.241305855364089 35.712324791102731 C72.489305855364137 18.863324791102741 75.507305855364052 1.541324791102738 73.749305855364128 1.039324791102729 C71.633305855364029 0.434324791102767 50.131305855364076 0.285324791102767 47.618305855364042 1.290324791102762 C45.845305855364131 1.999324791102708 45.783305855364119 1.560324791102744 45.859305855364141 6.818324791102725 C39.326305855364126 -2.477675208897267 16.862305855364063 -4.445675208897285 7.059305855364073 13.609324791102722 C-5.411694144635909 36.579324791102692 4.904305855364100 71.391324791102875 8.005305855364099 72.488324791102855 C11.213305855364069 73.623324791102846 25.793305855364110 73.654324791102852 26.764305855364114 72.647324791102847 C27.735305855364118 71.640324791102898 17.216305855364112 25.662324791102726 36.293305855364110 24.715324791102717 C52.270305855364086 23.922324791102724 48.272305855364039 70.268324791102884 49.628305855364147 72.145324791102894 C50.407305855364143 73.222324791102892 68.905305855364077 73.987324791102878 71.487305855364070 72.647324791102903 L71.487305855364070 72.647324791102903 L71.487305855364085 72.647324791102903 zM33.237000000000002 98.134092985756538 C35.600000000000001 90.592092985756537 29.800000000000011 82.149092985756525 22.583000000000013 80.405092985756539 C16.246000000000013 78.874092985756533 6.747999999999983 82.241092985756538 5.474999999999987 90.042092985756554 C4.157999999999987 98.113092985756523 8.603000000000005 106.474092985756540 15.688000000000002 108.694092985756540 C22.774000000000001 110.913092985756530 30.874000000000002 105.676092985756540 33.237000000000002 98.134092985756538 zM57.230000000000004 108.554092985756510 C50.145000000000010 106.334092985756540 45.700000000000003 97.973092985756523 47.016999999999996 89.902092985756525 C48.289999999999999 82.101092985756537 57.787999999999997 78.734092985756519 64.125000000000000 80.265092985756525 C71.341999999999999 82.009092985756524 77.141999999999996 90.452092985756536 74.778999999999996 97.994092985756510 C72.415999999999997 105.536092985756540 64.315000000000012 110.774092985756540 57.230000000000004 108.554092985756510 z" />
<glyph unicode="" horiz-adv-x="95" d="M92.460256989262120 51.185043419461806 C88.960256989262120 14.084043419461807 67.460256989262120 -2.405956580539169 38.214256989262140 0.569043419460854 C18.792256989262114 2.545043419460853 1.168256989262094 20.925043419461758 2.073256989262177 55.471043419461751 C2.870256989262099 85.932043419461763 30.146256989262156 117.505043419461980 52.697256989262087 118.143043419461830 C82.419256989262180 118.984043419461770 95.164256989262071 79.854043419461789 92.460256989262120 51.185043419461806 zM32.364256989262117 55.413043419461701 C32.364256989262117 35.832043419461684 49.538256989262095 30.994043419461832 59.864256989262117 42.015043419461790 C73.864256989262117 56.959043419461807 61.862256989262164 84.836043419461660 50.864256989262117 84.269043419461639 C40.864256989262117 83.754043419461652 32.364256989262124 66.749043419461714 32.364256989262117 55.413043419461701 zM58.009000000000000 175.059092985756540 C68.832999999999998 174.724092985756610 64.457999999999998 169.099092985756560 54.582999999999998 158.599092985756560 C40.108000000000004 143.207092985756560 39.332999999999998 142.474092985756560 26.399999999999999 129.174092985756540 C31.130000000000013 144.601092985756570 37.334999999999994 163.471092985756510 40.030000000000001 169.082092985756560 C41.957999999999998 173.099092985756560 42.692999999999998 175.533092985756530 58.009000000000000 175.059092985756540 zM70.030000000000001 169.075000000000020 C67.335000000000008 163.464000000000000 61.129999999999995 144.595000000000030 56.401000000000003 129.167000000000000 C69.334000000000003 142.466999999999980 70.108000000000004 143.199999999999990 84.584000000000003 158.591999999999980 C94.459000000000003 169.091999999999980 98.834000000000003 174.717000000000040 88.010000000000005 175.051999999999990 C72.692999999999998 175.526000000000010 71.957999999999998 173.092000000000010 70.030000000000001 169.075000000000020 z" />
<glyph unicode="" horiz-adv-x="74" d="M34.365429628298841 72.475218633550327 C50.447429628298892 72.207218633550241 70.297429628298801 56.126218633549797 71.804429628298863 33.764218633549774 C73.145429628298871 13.873218633549811 62.256429628298861 1.101218633550985 38.803429628298886 0.414218633550945 C16.261429628298856 -0.245781366449123 2.548429628298766 9.586218633549720 1.453429628298864 29.492218633549726 C-0.054570371701157 56.880218633549759 20.779429628298885 72.702218633550132 34.365429628298784 72.475218633550298 L34.365429628298898 72.475218633550298 L34.365429628298841 72.475218633550327 zM48.103429628298855 39.814091039414535 C46.658429628298904 44.578091039414517 41.144429628298894 51.744091039414855 33.191429628298806 49.424091039414861 C27.325429628298821 47.713091039414849 23.403429628298795 38.941091039414346 24.906429628298838 34.180091039414322 C26.894429628298898 27.884091039414329 33.853429628298841 25.895091039414297 40.481429628298883 27.552091039414279 C44.512429628298833 28.560091039414260 50.147429628298823 33.075091039414531 48.103429628298841 39.814091039414507 L48.103429628298841 39.814091039414507 L48.103429628298855 39.814091039414535 zM40.009000000000000 126.059092985756540 C50.832999999999998 125.724092985756560 46.457999999999998 120.099092985756530 36.582999999999998 109.599092985756530 C22.108000000000004 94.207092985756532 21.332999999999998 93.474092985756528 8.399999999999999 80.174092985756531 C13.130000000000031 95.601092985756509 19.334999999999997 114.471092985756510 22.030000000000001 120.082092985756530 C23.957999999999998 124.099092985756530 24.693000000000001 126.533092985756530 40.009000000000000 126.059092985756540 zM52.030000000000001 120.075000000000020 C49.335000000000008 114.464000000000000 43.129999999999995 95.595000000000027 38.401000000000003 80.167000000000002 C51.334000000000003 93.466999999999985 52.108000000000004 94.199999999999989 66.584000000000003 109.591999999999980 C76.459000000000003 120.091999999999980 80.834000000000003 125.717000000000010 70.010000000000005 126.051999999999990 C54.692999999999998 126.526000000000010 53.957999999999998 124.092000000000010 52.030000000000001 120.075000000000020 z" />
<glyph unicode="" horiz-adv-x="99" d="M9.669081853484542 116.098790631358440 C-3.276918146515534 71.765790631358385 -4.166918146515513 0.265790631359366 49.945081853484567 0.015790631357390 C104.057081853484530 -0.234209368644557 103.057081853484530 73.432790631358444 89.420081853484589 116.432790631358440 C88.751081853484493 118.541790631358420 63.452081853484515 118.518790631358460 63.724081853484563 116.099790631358420 C66.603081853484582 90.432790631358444 75.779081853484513 39.432790631358294 50.418081853484523 39.099790631358417 C25.057081853484533 38.766790631358532 33.620081853484507 91.099790631358402 36.057081853484533 116.432790631358440 C36.288081853484528 118.835790631358410 10.530081853484489 119.045790631358440 9.669081853484499 116.098790631358440 L9.669081853484499 116.098790631358440 L9.669081853484542 116.098790631358440 zM50.009000000000000 174.059092985756540 C60.832999999999998 173.724092985756580 56.457999999999998 168.099092985756530 46.582999999999998 157.599092985756530 C32.108000000000004 142.207092985756530 31.332999999999998 141.474092985756530 18.399999999999999 128.174092985756540 C23.130000000000017 143.601092985756540 29.335000000000001 162.471092985756510 32.030000000000001 168.082092985756530 C33.957999999999998 172.099092985756530 34.692999999999998 174.533092985756530 50.009000000000000 174.059092985756540 zM63.028999999999996 169.082092985756560 C60.334000000000003 163.471092985756540 54.128999999999991 144.602092985756570 49.399999999999999 129.174092985756540 C62.332999999999998 142.474092985756530 63.106999999999999 143.207092985756530 77.582999999999998 158.599092985756530 C87.457999999999998 169.099092985756530 91.832999999999998 174.724092985756580 81.009000000000000 175.059092985756540 C65.691999999999993 175.533092985756550 64.956999999999994 173.099092985756560 63.028999999999996 169.082092985756560 z" />
<glyph unicode="" horiz-adv-x="76" d="M71.487305855364085 72.647324791102903 C73.366305855364089 71.672324791102881 71.990305855364113 52.798324791102758 72.241305855364089 35.712324791102731 C72.489305855364137 18.863324791102741 75.507305855364052 1.541324791102738 73.749305855364128 1.039324791102729 C71.633305855364029 0.434324791102767 50.131305855364076 0.285324791102767 47.618305855364042 1.290324791102762 C45.845305855364131 1.999324791102708 45.783305855364119 1.560324791102744 45.859305855364141 6.818324791102725 C39.326305855364126 -2.477675208897267 16.862305855364063 -4.445675208897285 7.059305855364073 13.609324791102722 C-5.411694144635909 36.579324791102692 4.904305855364100 71.391324791102875 8.005305855364099 72.488324791102855 C11.213305855364069 73.623324791102846 25.793305855364110 73.654324791102852 26.764305855364114 72.647324791102847 C27.735305855364118 71.640324791102898 17.216305855364112 25.662324791102726 36.293305855364110 24.715324791102717 C52.270305855364086 23.922324791102724 48.272305855364039 70.268324791102884 49.628305855364147 72.145324791102894 C50.407305855364143 73.222324791102892 68.905305855364077 73.987324791102878 71.487305855364070 72.647324791102903 L71.487305855364070 72.647324791102903 L71.487305855364085 72.647324791102903 zM42.009000000000000 126.059092985756540 C52.832999999999998 125.724092985756560 48.457999999999998 120.099092985756530 38.582999999999998 109.599092985756530 C24.108000000000004 94.207092985756532 23.332999999999998 93.474092985756528 10.399999999999999 80.174092985756531 C15.130000000000031 95.601092985756509 21.334999999999997 114.471092985756510 24.030000000000001 120.082092985756530 C25.957999999999998 124.099092985756530 26.693000000000001 126.533092985756530 42.009000000000000 126.059092985756540 zM54.028999999999996 120.082092985756550 C51.334000000000003 114.471092985756530 45.128999999999991 95.602092985756556 40.399999999999999 80.174092985756531 C53.332999999999998 93.474092985756513 54.106999999999999 94.207092985756518 68.582999999999998 109.599092985756510 C78.457999999999998 120.099092985756510 82.832999999999998 125.724092985756530 72.009000000000000 126.059092985756520 C56.691999999999993 126.533092985756540 55.956999999999994 124.099092985756540 54.028999999999996 120.082092985756550 z" />
<glyph unicode="" horiz-adv-x="56.924411400247777" d="M3.412856645662259 53.428767785077696 C7.439125305185725 53.428767785077696 15.803923172242826 52.232084178065350 29.243923172242823 52.444084178065395 C42.082923172242822 52.646084178065557 49.012690068638079 53.428767785077696 53.038958728161674 53.241499475332432 C55.005275980487063 53.241499475332432 55.645641825614419 47.071498775775879 54.911641825614424 45.563498775775884 C54.552641825614430 44.826498775775889 42.013249235638341 45.702498775775723 29.162249235638342 45.563498775775884 C15.730249235638340 45.418498775776072 1.634539393336819 44.793498775775888 1.446539393336821 45.563498775775884 C1.078539393336826 47.071498775775893 1.446539393336757 53.428767785077696 3.412856645662259 53.428767785077696 z" />
<glyph unicode="" horiz-adv-x="70.198265179677833" d="M4.280049566294906 53.442379182156117 C8.213135068153699 53.442379182156117 19.957722428748411 52.927160254957784 36.510722428748416 53.139160254957659 C52.323722428748425 53.341160254957693 61.737298636926880 53.442379182156117 65.670384138785607 53.442379182156117 C67.722428748450994 53.442379182156117 68.455425030978986 47.084208178438658 67.551425030978976 45.576208178438662 C67.109425030978983 44.839208178438668 51.886722428748428 46.745160254957881 36.058722428748418 46.606160254957658 C19.515722428748418 46.461160254957605 2.460004956629547 44.806208178438666 2.228004956629548 45.576208178438662 C1.776004956629546 47.084208178438672 2.228004956629457 53.442379182156117 4.280049566294906 53.442379182156117 z" />
<glyph unicode="" horiz-adv-x="32.418835192069423" d="M29.882189591078095 107.782092985756530 C28.143189591078098 114.843092985756540 19.519189591078096 119.074092985756550 11.615189591078096 117.785092985756530 C3.975189591078095 116.538092985756530 0.678189591078095 107.237092985756530 2.177189591078097 101.030092985756540 C3.573189591078097 95.253092985756524 9.311189591078097 89.609092985756547 15.450189591078100 90.088092985756532 C20.097189591078099 90.451092985756532 18.951189591078098 85.157092985756535 15.469189591078099 80.265092985756525 C11.788189591078099 75.094092985756532 5.637189591078098 70.303092985756535 6.338189591078098 70.496092985756519 C27.150189591078092 76.229092985756509 33.521189591078084 93.006092985756538 29.882189591078095 107.782092985756530 z" />
<glyph unicode="" horiz-adv-x="69.432465923172231" d="M27.084988847583574 118.095663037222320 C27.784988847583577 118.288663037222320 21.633988847583574 113.497663037222320 17.953988847583574 108.326663037222320 C14.471988847583571 103.434663037222320 13.326988847583575 98.140663037222339 17.972988847583572 98.503663037222324 C24.111988847583575 98.982663037222324 29.849988847583575 93.338663037222162 31.245988847583575 87.561663037222161 C32.745988847583575 81.355663037222158 29.447988847583574 72.053663037222080 21.807988847583573 70.806663037222094 C13.903988847583573 69.516663037222088 5.279988847583573 73.748663037222087 3.540988847583574 80.809663037222094 C-0.098011152416381 95.585663037222091 6.272988847583576 112.361663037222310 27.084988847583574 118.095663037222320 zM39.540988847583577 80.809663037222094 C41.279988847583574 73.748663037222087 49.903988847583577 69.517663037222079 57.807988847583573 70.806663037222094 C65.447988847583574 72.053663037222080 68.744988847583571 81.354663037222167 67.245988847583575 87.561663037222161 C65.849988847583575 93.338663037222162 60.111988847583575 98.982663037222295 53.972988847583579 98.503663037222310 C49.325988847583574 98.140663037222311 50.471988847583575 103.434663037222320 53.953988847583574 108.326663037222320 C57.634988847583571 113.497663037222310 63.785988847583582 118.288663037222320 63.084988847583574 118.095663037222320 C42.272988847583576 112.361663037222330 35.901988847583631 95.585663037222091 39.540988847583577 80.809663037222094 z" />
<glyph unicode="" horiz-adv-x="69.177199504337068" d="M42.577456009913249 70.458747299923445 C41.877456009913246 70.265747299923447 48.028456009913242 75.056747299923444 51.708456009913249 80.227747299923436 C55.190456009913248 85.119747299923446 56.335456009913244 90.413747299923557 51.689456009913243 90.050747299923557 C45.550456009913241 89.571747299923572 39.812456009913241 95.215747299923677 38.416456009913247 100.992747299923680 C36.916456009913247 107.198747299923680 40.214456009913249 116.500747299923690 47.854456009913250 117.747747299923670 C55.758456009913246 119.037747299923670 64.382456009913255 114.805747299923670 66.121456009913246 107.744747299923670 C69.760456009913270 92.968747299923677 63.389456009913246 76.191747299923435 42.577456009913249 70.458747299923445 zM30.121456009913253 107.744747299923690 C28.382456009913255 114.805747299923680 19.758456009913253 119.036747299923690 11.854456009913253 117.747747299923670 C4.214456009913253 116.500747299923690 0.917456009913252 107.199747299923690 2.416456009913254 100.992747299923680 C3.812456009913254 95.215747299923692 9.550456009913255 89.571747299923572 15.689456009913258 90.050747299923557 C20.336456009913256 90.413747299923557 19.190456009913255 85.119747299923446 15.708456009913256 80.227747299923450 C12.027456009913255 75.056747299923444 5.876456009913255 70.265747299923447 6.577456009913256 70.458747299923445 C27.389456009913250 76.191747299923435 33.760456009913241 92.968747299923677 30.121456009913253 107.744747299923690 z" />
</font>
</defs>
</svg>
